<svg width="36" height="36" viewBox="0 0 36 36" fill="none" xmlns="http://www.w3.org/2000/svg">
<path d="M18 0C8.04545 0 0 8.04545 0 18C0 27.9545 8.04545 36 18 36C27.9545 36 36 27.9545 36 18C35.9318 8.04545 27.8864 0 18 0ZM13.0909 26.5227H9.27273V14.8636H13.0909V26.5227ZM11.1818 13.2273C10.1591 13.2273 9.27273 12.3409 9.27273 11.3182C9.27273 10.2955 10.1591 9.40909 11.1818 9.40909C12.2045 9.40909 13.0909 10.2955 13.0909 11.3182C13.0909 12.3409 12.2727 13.2273 11.1818 13.2273ZM26.6591 26.5227H22.9773V20.8636C22.9773 19.5682 22.9773 17.9318 21.0682 17.9318C19.1591 17.9318 18.8864 19.3636 18.8864 20.7955V26.5909H15.2045V14.8636H18.75V16.7045H18.8182C19.2955 15.8182 20.5227 14.8636 22.2955 14.8636C26.0455 14.8636 26.7273 17.1818 26.7273 20.1818V26.5227H26.6591Z" fill="#121212"/>
</svg>
