<svg width="36" height="36" viewBox="0 0 36 36" fill="none" xmlns="http://www.w3.org/2000/svg">
<g clip-path="url(#clip0_1104_2252)">
<path fill-rule="evenodd" clip-rule="evenodd" d="M18.0342 0C8.06072 0 0 8.06072 0 18.0342C0 28.0076 8.06072 36.0683 18.0342 36.0683C28.0076 36.0683 36.0683 28.0076 36.0683 18.0342C36 8.06072 27.9393 0 18.0342 0ZM25.0702 24.1822C21.8596 25.2751 18.1708 25.0702 14.9602 23.2258C11.8178 21.3814 9.7685 18.444 9.08539 15.1651C8.5389 12.5009 8.74383 12.296 10.3833 11.8861C11.3397 11.6812 12.296 11.408 13.2524 11.203C13.7305 11.0664 14.277 11.3397 14.4137 11.8861L15.2334 14.9602C15.37 15.4383 15.0968 15.9848 14.5503 16.1214C13.7989 16.3264 12.4326 16.2581 13.389 17.7609C14.1404 18.9222 15.1651 19.9469 16.463 20.6983C17.7609 21.4497 19.1271 21.8596 20.4934 21.9279C22.2694 21.9962 21.518 20.7666 21.3131 20.1518C21.1765 19.6736 21.4497 19.1271 21.9962 18.9905L25.0702 18.1708C25.5484 18.0342 26.0949 18.3074 26.2315 18.8539L26.5731 20.0835L26.9829 21.5863C27.5294 23.4991 27.3928 23.3624 25.0702 24.1822Z" fill="#121212"/>
</g>
<defs>
<clipPath id="clip0_1104_2252">
<rect width="36" height="36" fill="white"/>
</clipPath>
</defs>
</svg>
