<svg width="36" height="36" viewBox="0 0 36 36" fill="none" xmlns="http://www.w3.org/2000/svg">
<path d="M18 0C8.04545 0 0 8.04545 0 18C0 27.9545 8.04545 36 18 36C27.9545 36 36 27.9545 36 18C36 8.04545 27.9545 0 18 0ZM9 17.25C9 16.2273 9.06818 15.2045 9.20455 14.25C9.27273 13.9091 9.47727 13.0227 9.81818 12.6818C10.2955 12.1364 10.9091 12.0682 11.25 12.0682H11.3864C14.0455 11.8636 18 11.8636 18.0682 11.8636C18.1364 11.8636 22.0909 11.8636 24.6818 12.0682H24.8182C25.1591 12.1364 25.7727 12.1364 26.25 12.6818C26.5909 13.0227 26.7955 13.8409 26.8636 14.25V14.3182C27 15.2727 27.0682 16.2955 27.0682 17.25V18.6818C27.0682 19.7045 27 20.7273 26.8636 21.6818C26.7955 22.0909 26.5909 22.9091 26.25 23.25C25.7727 23.7955 25.1591 23.8636 24.8182 23.8636H24.6818C22.0227 24.0682 18.0682 24.0682 18 24.0682C17.9318 24.0682 13.0227 24 11.5909 23.8636C11.5227 23.8636 11.3864 23.8636 11.3182 23.7955C10.9091 23.7273 10.2955 23.6591 9.81818 23.1818C9.47727 22.8409 9.27273 22.0227 9.20455 21.6136C9.06818 20.5909 9 19.5682 9 18.5455V17.25Z" fill="#121212"/>
<path d="M15.4775 14.3182V21.6818L22.5684 18L15.4775 14.3182Z" fill="#121212"/>
</svg>
