<svg width="36" height="36" viewBox="0 0 36 36" fill="none" xmlns="http://www.w3.org/2000/svg">
<path d="M18 0C8.04545 0 0 8.04545 0 18C0 27.9545 8.04545 36 18 36C27.9545 36 36 27.9545 36 18C35.9318 8.04545 27.8864 0 18 0ZM23.9318 10.4318H22.1591C20.4545 10.4318 19.9091 11.5227 19.9091 12.6136V15.2727H23.7955L23.1818 19.2955H19.9091V29.25H15.5455V19.2955H12V15.2727H15.5455V12.2045C15.5455 8.65909 17.6591 6.75 20.8636 6.75C21.8864 6.75 22.9773 6.88636 24 7.02273V10.4318H23.9318Z" fill="#121212"/>
</svg>
