<svg width="36" height="36" viewBox="0 0 36 36" fill="none" xmlns="http://www.w3.org/2000/svg">
<g clip-path="url(#clip0_1506_140)">
<path d="M18 0C8.04545 0 0 8.04545 0 18C0 27.9545 8.04545 36 18 36C27.9545 36 36 27.9545 36 18C35.9318 8.04545 27.8864 0 18 0ZM10.7045 11.7955H25.2273C25.9091 11.7955 26.4545 12.2727 26.5909 12.9545L17.6591 18.1364L9.34091 13.2273C9.34091 12.4091 9.95455 11.7955 10.7045 11.7955ZM26.5909 22.7727C26.5909 23.5227 25.9773 24.1364 25.2273 24.1364H10.7045C9.95455 24.1364 9.34091 23.5227 9.34091 22.7727V14.9318L17.6591 19.5682L26.5909 14.5909V22.7727Z" fill="#121212"/>
</g>
<defs>
<clipPath id="clip0_1506_140">
<rect width="36" height="36" fill="white"/>
</clipPath>
</defs>
</svg>
