<?xml version="1.0" encoding="utf-8"?><svg viewBox="0 0 36 36" xmlns="http://www.w3.org/2000/svg" xmlns:xlink="http://www.w3.org/1999/xlink"><style>:root>svg{display:none}:root>svg:target{display:block}</style><svg viewBox="0 0 36 36" id="fb" xmlns="http://www.w3.org/2000/svg"><path d="M18 0C8.045 0 0 8.045 0 18c0 9.954 8.045 18 18 18 9.954 0 18-8.046 18-18-.068-9.955-8.114-18-18-18zm5.932 10.432h-1.773c-1.704 0-2.25 1.09-2.25 2.182v2.659h3.887l-.614 4.023h-3.273v9.954h-4.363v-9.954H12v-4.023h3.546v-3.069c0-3.545 2.113-5.454 5.318-5.454 1.022 0 2.113.136 3.136.273v3.409h-.068z"/></svg><svg viewBox="0 0 36 36" id="in" xmlns="http://www.w3.org/2000/svg"><path d="M18 0C8.045 0 0 8.045 0 18c0 9.954 8.045 18 18 18 9.954 0 18-8.046 18-18-.068-9.955-8.114-18-18-18zm-4.91 26.523H9.274v-11.66h3.818v11.66zm-1.908-13.296c-1.023 0-1.91-.886-1.91-1.909 0-1.022.887-1.909 1.91-1.909 1.022 0 1.909.886 1.909 1.91a1.905 1.905 0 01-1.91 1.908zm15.477 13.296h-3.682v-5.66c0-1.295 0-2.931-1.909-2.931s-2.182 1.432-2.182 2.864v5.795h-3.681V14.864h3.545v1.84h.068c.477-.886 1.705-1.84 3.477-1.84 3.75 0 4.432 2.318 4.432 5.318v6.34h-.068z"/></svg><svg viewBox="0 0 36 36" id="mail" xmlns="http://www.w3.org/2000/svg"><g clip-path="url(#ca)"><path d="M18 0C8.045 0 0 8.045 0 18c0 9.954 8.045 18 18 18 9.954 0 18-8.046 18-18-.068-9.955-8.114-18-18-18zm-7.296 11.796h14.523c.682 0 1.227.477 1.364 1.159l-8.932 5.181-8.318-4.909c0-.818.614-1.431 1.364-1.431zm15.887 10.977c0 .75-.614 1.363-1.364 1.363H10.704c-.75 0-1.363-.613-1.363-1.363v-7.841l8.318 4.636 8.932-4.977v8.182z"/></g><defs><clipPath id="ca"><path d="M0 0h36v36H0z"/></clipPath></defs></svg><svg viewBox="0 0 36 36" id="phone" xmlns="http://www.w3.org/2000/svg"><g clip-path="url(#da)"><path fill-rule="evenodd" clip-rule="evenodd" d="M18.034 0C8.061 0 0 8.06 0 18.034c0 9.974 8.06 18.034 18.034 18.034 9.974 0 18.034-8.06 18.034-18.034C36 8.061 27.94 0 18.034 0zm7.036 24.182c-3.21 1.093-6.9.888-10.11-.956-3.142-1.845-5.192-4.782-5.875-8.06-.546-2.665-.341-2.87 1.298-3.28.957-.205 1.913-.478 2.87-.683a.937.937 0 011.16.683l.82 3.074a.936.936 0 01-.683 1.161c-.751.205-2.117.137-1.161 1.64a9.065 9.065 0 003.074 2.937c1.298.752 2.664 1.162 4.03 1.23 1.776.068 1.025-1.161.82-1.776a.936.936 0 01.683-1.162l3.074-.82a.936.936 0 011.162.684l.341 1.23.41 1.502c.546 1.913.41 1.776-1.913 2.596z"/></g><defs><clipPath id="da"><path d="M0 0h36v36H0z"/></clipPath></defs></svg><svg viewBox="0 0 36 36" id="yt" xmlns="http://www.w3.org/2000/svg"><path d="M18 0C8.045 0 0 8.045 0 18c0 9.954 8.045 18 18 18 9.954 0 18-8.046 18-18 0-9.955-8.046-18-18-18zM9 17.25c0-1.023.068-2.046.205-3 .068-.34.272-1.227.613-1.568.478-.546 1.091-.614 1.432-.614h.136c2.66-.204 6.614-.204 6.682-.204.068 0 4.023 0 6.614.204h.136c.341.068.955.068 1.432.614.34.34.546 1.159.614 1.568v.068c.136.955.204 1.978.204 2.932v1.432a21.44 21.44 0 01-.204 3c-.069.409-.273 1.227-.614 1.568-.477.546-1.09.614-1.432.614h-.136c-2.66.204-6.614.204-6.682.204-.068 0-4.977-.068-6.41-.204-.067 0-.204 0-.272-.069-.409-.068-1.022-.136-1.5-.613-.34-.341-.545-1.16-.613-1.568A23.188 23.188 0 019 18.545V17.25z"/><path d="M15.477 14.318v7.364L22.569 18l-7.09-3.682z"/></svg></svg>