<svg width="188" height="52" viewBox="0 0 188 52" fill="none" xmlns="http://www.w3.org/2000/svg">
<g clip-path="url(#clip0_164_187)">
<path d="M39.4216 10.6339C36.3903 9.23531 33.1709 8.21601 29.8106 7.64709C29.3876 8.38195 28.9176 9.37753 28.5886 10.1598C25.0145 9.63828 21.4661 9.63828 17.9413 10.1598C17.6123 9.37753 17.1188 8.38195 16.7193 7.64709C13.3355 8.21601 10.1161 9.23531 7.10595 10.6339C1.01975 19.6891 -0.625176 28.5309 0.197285 37.2542C4.23908 40.2173 8.13993 42.0189 11.9726 43.2042C12.9126 41.9241 13.7585 40.5492 14.487 39.1033C13.1006 38.5817 11.7846 37.9417 10.5157 37.1831C10.8447 36.9462 11.1737 36.6854 11.4791 36.4247C19.1398 39.9567 27.4372 39.9567 35.0038 36.4247C35.3328 36.6854 35.6383 36.9462 35.9673 37.1831C34.6983 37.9417 33.3824 38.5817 31.9959 39.1033C32.7244 40.5492 33.5704 41.9241 34.5103 43.2042C38.3406 42.0189 42.265 40.2173 46.2856 37.2542C47.296 27.1561 44.6853 18.3854 39.4216 10.6339ZM15.5444 31.8733C13.2415 31.8733 11.3616 29.7636 11.3616 27.1798C11.3616 24.596 13.1945 22.4862 15.5444 22.4862C17.8708 22.4862 19.7741 24.596 19.7271 27.1798C19.7271 29.7636 17.8708 31.8733 15.5444 31.8733ZM30.9856 31.8733C28.6826 31.8733 26.8003 29.7636 26.8003 27.1798C26.8003 24.596 28.6356 22.4862 30.9856 22.4862C33.3119 22.4862 35.2153 24.596 35.1683 27.1798C35.1683 29.7636 33.3354 31.8733 30.9856 31.8733Z" fill="#121212"/>
<path d="M62.5703 15.0895H72.5598C74.9566 15.0895 77.001 15.4687 78.6695 16.2273C80.3378 16.9859 81.5833 18.0289 82.4058 19.38C83.2282 20.7312 83.6512 22.272 83.6512 24.0262C83.6512 25.7329 83.2283 27.2738 82.3588 28.6723C81.4893 30.0472 80.1735 31.1612 78.411 31.9672C76.6486 32.7732 74.4631 33.1762 71.8548 33.1762H62.5703V15.0895ZM71.7373 28.5774C73.3586 28.5774 74.6041 28.1744 75.4736 27.3449C76.3431 26.5389 76.7896 25.401 76.7896 24.0025C76.7896 22.6987 76.3901 21.6556 75.6146 20.8735C74.8391 20.0912 73.6643 19.6882 72.0898 19.6882H68.9644V28.5774H71.7373Z" fill="#121212"/>
<path d="M99.2095 33.1538C97.823 32.7982 96.5776 32.2766 95.4731 31.5655V27.2749C96.3191 27.9386 97.4235 28.4601 98.8335 28.8869C100.243 29.3136 101.606 29.5269 102.922 29.5269C103.533 29.5269 104.003 29.4558 104.309 29.2899C104.614 29.1239 104.779 28.9343 104.779 28.6972C104.779 28.4364 104.685 28.2231 104.52 28.0571C104.356 27.8912 104.027 27.749 103.533 27.6067L100.455 26.9194C98.6925 26.5164 97.447 25.9238 96.695 25.2126C95.9431 24.5014 95.5906 23.5296 95.5906 22.3443C95.5906 21.3487 95.9196 20.4717 96.554 19.7368C97.212 19.002 98.1285 18.433 99.327 18.03C100.525 17.6272 101.912 17.4138 103.533 17.4138C104.967 17.4138 106.283 17.5561 107.481 17.8879C108.679 18.196 109.666 18.599 110.442 19.0731V23.1266C109.643 22.6525 108.703 22.2732 107.669 21.9887C106.612 21.7043 105.531 21.562 104.426 21.562C102.828 21.562 102.029 21.8465 102.029 22.3917C102.029 22.6525 102.147 22.8422 102.405 22.9844C102.664 23.1266 103.11 23.2452 103.768 23.3874L106.33 23.8615C107.998 24.1458 109.243 24.6674 110.066 25.4022C110.888 26.1371 111.288 27.2037 111.288 28.6498C111.288 30.2144 110.606 31.4706 109.243 32.3715C107.881 33.296 105.954 33.7463 103.463 33.7463C102.006 33.6988 100.596 33.5092 99.2095 33.1538Z" fill="#121212"/>
<path d="M117.635 32.609C116.178 31.8742 115.05 30.9024 114.322 29.6697C113.57 28.437 113.217 27.0385 113.217 25.4739C113.217 23.9331 113.593 22.5345 114.369 21.3256C115.144 20.0929 116.272 19.1447 117.753 18.4337C119.233 17.7462 121.019 17.3906 123.087 17.3906C125.648 17.3906 127.763 17.9359 129.455 19.0262V23.7435C128.868 23.3405 128.163 22.9849 127.364 22.7478C126.565 22.4871 125.719 22.3686 124.826 22.3686C123.228 22.3686 122.006 22.653 121.089 23.2457C120.196 23.8383 119.75 24.5969 119.75 25.545C119.75 26.4695 120.173 27.2281 121.066 27.8208C121.935 28.4132 123.204 28.7214 124.849 28.7214C125.695 28.7214 126.541 28.6029 127.364 28.3421C128.186 28.0814 128.915 27.797 129.502 27.4178V31.9927C127.622 33.1306 125.437 33.6995 122.969 33.6995C120.878 33.6995 119.115 33.3202 117.635 32.609Z" fill="#121212"/>
<path d="M136.155 32.609C134.674 31.8742 133.546 30.9024 132.771 29.646C131.995 28.3895 131.596 26.991 131.596 25.4265C131.596 23.8857 131.995 22.4871 132.771 21.2782C133.546 20.0692 134.674 19.121 136.131 18.4337C137.588 17.7462 139.35 17.3906 141.374 17.3906C143.395 17.3906 145.157 17.7225 146.614 18.4337C148.071 19.121 149.199 20.0692 149.974 21.2782C150.75 22.4871 151.126 23.862 151.126 25.4265C151.126 26.9673 150.75 28.3895 149.974 29.646C149.199 30.9024 148.094 31.8979 146.614 32.609C145.133 33.3202 143.395 33.6995 141.374 33.6995C139.374 33.6995 137.635 33.3202 136.155 32.609ZM143.935 28.034C144.546 27.4178 144.875 26.5643 144.875 25.545C144.875 24.5021 144.569 23.6961 143.935 23.0797C143.301 22.4634 142.455 22.1552 141.397 22.1552C140.293 22.1552 139.444 22.4634 138.81 23.0797C138.199 23.6961 137.87 24.5021 137.87 25.545C137.87 26.588 138.175 27.4178 138.81 28.034C139.444 28.674 140.293 28.9822 141.397 28.9822C142.455 28.9585 143.324 28.6503 143.935 28.034Z" fill="#121212"/>
<path d="M166.847 18.3379V23.9086C166.189 23.4819 165.343 23.2685 164.309 23.2685C162.946 23.2685 161.887 23.6953 161.16 24.5248C160.43 25.3545 160.055 26.6583 160.055 28.4124V33.1534H153.781V18.0771H159.938V22.8893C160.267 21.135 160.831 19.8314 161.583 19.0016C162.335 18.1719 163.322 17.7217 164.52 17.7217C165.413 17.7217 166.189 17.935 166.847 18.3379Z" fill="#121212"/>
<path d="M188 14.5686V33.1768H181.726V29.787C181.185 31.0671 180.386 32.039 179.305 32.7026C178.222 33.3664 176.882 33.6983 175.284 33.6983C173.874 33.6983 172.629 33.3427 171.571 32.6552C170.514 31.9679 169.693 30.996 169.129 29.787C168.565 28.5544 168.283 27.1795 168.283 25.6625C168.258 24.0742 168.565 22.652 169.198 21.3955C169.809 20.1393 170.702 19.1673 171.83 18.4562C172.958 17.745 174.25 17.3894 175.707 17.3894C178.692 17.3894 180.692 18.6932 181.726 21.3244V14.5686H188ZM180.786 27.9144C181.42 27.298 181.749 26.4683 181.749 25.4728C181.749 24.5009 181.444 23.7186 180.809 23.1261C180.175 22.5334 179.329 22.2253 178.269 22.2253C177.211 22.2253 176.365 22.5334 175.731 23.1498C175.096 23.766 174.791 24.5483 174.791 25.5439C174.791 26.5394 175.096 27.3217 175.731 27.9381C176.365 28.5544 177.188 28.8626 178.245 28.8626C179.305 28.8626 180.151 28.5544 180.786 27.9144Z" fill="#121212"/>
<path d="M89.4343 18.9787C91.2365 18.9787 92.7007 17.6519 92.7007 16.0156C92.7007 14.379 91.2365 13.0525 89.4343 13.0525C87.6295 13.0525 86.168 14.379 86.168 16.0156C86.168 17.6519 87.6295 18.9787 89.4343 18.9787Z" fill="#121212"/>
<path d="M92.7007 21.0156C90.7032 21.8926 88.2123 21.9163 86.168 21.0156V33.1761H92.7007V21.0156Z" fill="#121212"/>
</g>
<defs>
<clipPath id="clip0_164_187">
<rect width="188" height="52" fill="white"/>
</clipPath>
</defs>
</svg>
