<svg width="65" height="65" viewBox="0 0 65 65" fill="none" xmlns="http://www.w3.org/2000/svg">
<g clip-path="url(#clip0_164_180)">
<path d="M64.9356 14.0874C64.731 11.4768 64.2838 9.72185 63.3724 7.86693C62.6255 6.34839 61.7958 5.21375 60.5908 4.05473C58.4415 1.99994 55.8122 0.750741 52.6784 0.29859C51.1602 0.0792178 50.8569 0.0134061 43.0882 0H32.5112C18.9417 0 14.9745 0.0146248 14.2033 0.077999C11.418 0.309559 9.6854 0.748303 7.79807 1.68795C6.34329 2.41066 5.19554 3.24915 4.06363 4.42279C2.00207 6.56411 0.75198 9.19779 0.299948 12.3287C0.0794145 13.8497 0.0148385 14.1593 0.00265435 21.9238C-0.00221931 24.5124 0.00265435 27.9188 0.00265435 32.4878C0.00265435 46.0487 0.0172753 50.0132 0.0818513 50.7835C0.307258 53.4939 0.732485 55.1989 1.63168 57.0636C3.35208 60.6345 6.63571 63.3145 10.5054 64.3151C11.8456 64.66 13.3248 64.8501 15.2243 64.9391C16.0297 64.9744 24.2333 65 32.4417 65C40.6502 65 48.8587 64.989 49.6433 64.95C51.8426 64.8464 53.1195 64.6746 54.5316 64.309C58.4159 63.3133 61.6618 60.6552 63.4053 57.0441C64.2875 55.2233 64.7346 53.4537 64.9381 50.8846C64.9819 50.3252 65.0002 41.3955 65.0002 32.4793C65.0002 23.563 64.9795 14.648 64.9356 14.0874ZM56.3446 42.3973C56.224 44.9518 55.8195 46.6958 55.2298 48.2229C54.6145 49.8012 53.7945 51.1405 52.4603 52.4738C51.1261 53.8096 49.7895 54.631 48.2117 55.244C46.685 55.8375 44.9402 56.2422 42.3852 56.3592C39.8253 56.4762 39.0102 56.5042 32.4929 56.5042C25.9756 56.5042 25.1593 56.4762 22.6006 56.3592C20.0456 56.2422 18.302 55.8375 16.7754 55.244C15.1975 54.631 13.8597 53.8096 12.5255 52.4738C11.1914 51.1405 10.3714 49.8012 9.7585 48.2229C9.16513 46.6958 8.76184 44.9518 8.64365 42.3973C8.5279 39.8368 8.49866 39.0214 8.49866 32.5024C8.49866 25.9834 8.52912 25.1657 8.64244 22.6051C8.75818 20.0518 9.1627 18.3066 9.75729 16.7795C10.3726 15.2025 11.1926 13.8631 12.5267 12.5286C13.8609 11.1941 15.1999 10.3739 16.7778 9.76085C18.3032 9.16732 20.0468 8.7627 22.6018 8.6457C25.1617 8.52992 25.9793 8.50067 32.4929 8.50067C39.0066 8.50067 39.8229 8.52992 42.3816 8.6457C44.9366 8.7627 46.6814 9.16732 48.2105 9.76085C49.7907 10.3739 51.1249 11.1941 52.4603 12.5286C53.7945 13.8631 54.6145 15.2025 55.2298 16.7808C55.8195 18.3066 56.224 20.0506 56.3446 22.6063C56.4591 25.1657 56.4896 25.9846 56.4896 32.5024C56.4896 39.0202 56.4591 39.8368 56.3446 42.3973Z" fill="#121212"/>
<path d="M52.0267 22.8013C51.9207 20.4613 51.5284 19.1914 51.2006 18.3468C50.7644 17.2255 50.2442 16.4261 49.4047 15.5864C48.5652 14.7454 47.7671 14.2262 46.6474 13.7912C45.8018 13.4621 44.531 13.0709 42.1917 12.9649C39.6622 12.8491 38.9032 12.8259 32.4955 12.8259C31.695 12.8259 30.9823 12.8247 30.3438 12.8259V12.8198C25.871 12.8247 25.0132 12.8552 22.7994 12.9551C20.46 13.0624 19.1904 13.4523 18.3436 13.7826C17.2239 14.2189 16.4246 14.7393 15.5851 15.579C14.7444 16.4187 14.2242 17.2195 13.7892 18.3395C13.4602 19.1853 13.0691 20.4552 12.9631 22.7952C12.8474 25.3253 12.8242 26.0821 12.8242 32.4914C12.8242 38.9007 12.8474 39.6612 12.9631 42.1913C13.0691 44.5313 13.4602 45.8012 13.7892 46.6458C14.2254 47.767 14.7444 48.5653 15.5851 49.405C16.4246 50.2447 17.2239 50.7651 18.3436 51.2002C19.1904 51.5281 20.46 51.9193 22.7994 52.0277C25.3288 52.1423 26.0891 52.1679 32.4955 52.1679C38.902 52.1679 39.6622 52.1423 42.1917 52.0277C44.531 51.9205 45.8018 51.5305 46.6474 51.2002C47.7671 50.7651 48.5652 50.2459 49.4047 49.405C50.2442 48.5653 50.7657 47.7683 51.2006 46.6482C51.5284 45.8037 51.9195 44.5325 52.0267 42.1926C52.1413 39.6625 52.1668 38.9032 52.1668 32.4975C52.1668 26.0918 52.1413 25.3314 52.0267 22.8013ZM32.4955 44.8262C25.6907 44.8262 20.1737 39.3102 20.1737 32.5024C20.1737 25.6945 25.6907 20.1773 32.4955 20.1773C39.3004 20.1773 44.8174 25.6958 44.8174 32.5024C44.8174 39.309 39.3016 44.8262 32.4955 44.8262ZM48.1838 19.6923C48.1838 21.2827 46.8948 22.5721 45.3047 22.5721C43.7147 22.5721 42.4256 21.2827 42.4256 19.6923C42.4256 18.1018 43.7147 16.8112 45.3047 16.8112C46.8948 16.81 48.1838 18.1006 48.1838 19.6911V19.6923Z" fill="#121212"/>
<path d="M40.4941 32.5025C40.4941 36.9216 36.9132 40.5035 32.4952 40.5035C28.0773 40.5035 24.4976 36.9216 24.4976 32.5025C24.4976 28.0833 28.0785 24.5027 32.4952 24.5027C36.912 24.5027 40.4941 28.0845 40.4941 32.5025Z" fill="#121212"/>
</g>
<defs>
<clipPath id="clip0_164_180">
<rect width="65" height="65" fill="white"/>
</clipPath>
</defs>
</svg>
