<svg width="196" height="202" viewBox="0 0 196 202" fill="none" xmlns="http://www.w3.org/2000/svg">
<path d="M168.5 3.5L3.5 85V159L170.5 79L168.5 3.5Z" fill="#D9D9D9"/>
<path d="M195.534 20.9437C195.499 19.0781 195.107 17.2306 194.219 15.6046C193.757 14.7833 193.176 14.0132 192.441 13.5687C186.612 10.0092 175.418 3.77949 171.299 1.4859C170.035 0.801744 168.513 0.629951 167.231 1.26287H167.214C140.398 14.4397 114.864 26.9836 88.0134 40.1619C71.1453 48.4276 54.2756 56.6586 37.406 64.9077C26.6392 70.179 15.8874 75.4488 5.10406 80.6855C1.48151 82.4487 -0.0219965 85.2893 0.0111137 89.2767C0.215795 105.003 -0.0566116 150.782 0.0111137 157.849C0.0276688 158.927 0.882513 160.382 1.78853 160.981C8.07795 165.55 16.0771 172.378 20.9984 173.885L20.878 200.684C21.1354 201.283 22.0068 201.283 22.2626 200.684L56.8206 159.047C84.7129 146.11 122.024 128.586 135.286 122.151C154.035 113.029 172.766 103.891 191.532 94.7861C194.095 93.5368 195.698 89.7122 195.856 87.1187C196.309 79.6954 195.549 20.5655 195.531 20.9422L195.534 20.9437ZM168.053 70.2815C168.053 73.6872 166.122 76.8187 163.045 78.3241L8.98396 153.777C4.55774 155.917 4.02798 154.599 4.11376 150.492L3.94219 90.22C3.94219 86.7796 5.01827 84.914 8.35186 83.1343L165.864 6.51763C166.889 6.00376 168.053 6.46639 168.053 7.61319V70.2815Z" fill="#121212"/>
<path d="M48.0621 82.818C49.1848 82.2559 50.0156 81.8656 50.5513 81.6411C51.0871 81.415 51.7523 81.2462 52.5515 81.1332C53.3476 81.0202 54.0219 81.1227 54.5697 81.4436C56.3742 82.4458 57.2757 84.3686 57.2757 87.2062V109.981L49.8666 113.677V112.059C48.482 113.857 46.5736 115.361 44.143 116.575L19.4082 128.916C18.3096 129.464 17.4999 129.847 16.9776 130.066C16.4539 130.283 15.8007 130.447 15.0166 130.554C14.2325 130.661 13.5658 130.554 13.0195 130.231C11.215 129.256 10.3135 127.365 10.3135 124.558V122.258C10.3135 119.561 11.2014 116.776 12.9788 113.903C13.5282 113.032 14.1934 112.261 14.979 111.586C15.7631 110.912 16.4358 110.412 16.9972 110.088C17.5601 109.767 18.3623 109.343 19.4097 108.821L48.7318 94.1925V91.5101C48.7318 91.2826 48.6595 91.1364 48.5166 91.0656C48.3721 90.9947 48.2096 91.0053 48.0259 91.0957L20.3519 104.904C20.1683 104.997 20.0042 105.148 19.8612 105.362C19.7168 105.576 19.6445 105.796 19.6445 106.024V107.214L11.06 111.497V110.264C11.06 107.482 11.975 104.642 13.8036 101.742C14.3529 100.871 15.0317 100.095 15.8414 99.4066C16.6526 98.7194 17.3178 98.2296 17.8415 97.9403C18.3638 97.651 19.1735 97.232 20.2721 96.685L48.0666 82.8165L48.0621 82.818ZM45.6706 107.511C46.5074 107.094 47.2238 106.414 47.8273 105.477C48.4278 104.539 48.7288 103.617 48.7288 102.707V102.451L19.5632 117.002C19.3525 117.106 19.1825 117.269 19.0546 117.49C18.9221 117.712 18.8574 117.921 18.8574 118.121V120.12C18.8574 120.631 19.0922 120.768 19.5632 120.534L45.6706 107.508V107.511Z" fill="#121212"/>
<path d="M98.5523 57.6275C99.675 57.0669 100.506 56.6751 101.042 56.4506C101.577 56.2245 102.243 56.0557 103.042 55.9427C103.838 55.8312 104.512 55.9322 105.06 56.2547C106.864 57.2553 107.766 59.1782 107.766 62.0158V84.7934L100.357 88.49V86.87C98.9722 88.6678 97.0639 90.1732 94.6333 91.3878L69.8985 103.728C68.7998 104.277 67.9901 104.658 67.4664 104.878C66.9441 105.095 66.291 105.259 65.5069 105.366C64.7227 105.473 64.056 105.366 63.5097 105.042C61.7052 104.07 60.8037 102.178 60.8037 99.3687V97.0691C60.8037 94.3731 61.6917 91.5898 63.4676 88.7145C64.0184 87.8435 64.6836 87.0719 65.4692 86.3968C66.2533 85.7232 66.9261 85.2229 67.4874 84.9004C68.0503 84.5779 68.8525 84.1545 69.9 83.6331L99.222 69.0035V66.3211C99.222 66.0936 99.1498 65.9444 99.0068 65.8751C98.8623 65.8042 98.6983 65.8178 98.5162 65.9082L70.8421 79.7165C70.657 79.8069 70.4945 79.9591 70.3515 80.1731C70.207 80.3886 70.1348 80.6056 70.1348 80.8331V82.0266L61.5502 86.3079V85.0752C61.5502 82.2934 62.4652 79.4528 64.2938 76.5549C64.8432 75.6823 65.5219 74.9032 66.3316 74.2146C67.1413 73.5289 67.808 73.0391 68.3318 72.7513C68.854 72.462 69.6637 72.043 70.7623 71.4945L98.5568 57.629L98.5523 57.6275ZM96.1608 82.3205C96.9976 81.9046 97.714 81.2264 98.3175 80.2861C98.918 79.3488 99.219 78.4265 99.219 77.5163V77.2601L70.0535 91.8113C69.8428 91.9168 69.6727 92.078 69.5433 92.2996C69.4124 92.5211 69.3476 92.7321 69.3476 92.9295V94.9322C69.3476 95.4431 69.5824 95.5802 70.0535 95.3451L96.1608 82.319V82.3205Z" fill="#121212"/>
<path d="M149.043 32.4372C150.167 31.8766 150.998 31.4848 151.533 31.2603C152.069 31.0342 152.734 30.8654 153.533 30.7524C154.33 30.6394 155.004 30.7419 155.552 31.0628C157.356 32.065 158.258 33.9878 158.258 36.8254V59.6031L150.849 63.2997V61.6797C149.464 63.4775 147.556 64.9829 145.125 66.196L120.39 78.538C119.292 79.085 118.482 79.4693 117.958 79.6863C117.436 79.9033 116.783 80.0676 115.999 80.1746C115.214 80.2816 114.548 80.1746 113.998 79.8521C112.195 78.8771 111.294 76.9874 111.294 74.1784V71.8788C111.294 69.1828 112.182 66.3965 113.958 63.5257C114.509 62.6532 115.174 61.8816 115.959 61.2065C116.744 60.5329 117.415 60.0326 117.978 59.7086C118.541 59.3876 119.343 58.9641 120.39 58.4427L149.712 43.8147V41.1308C149.712 40.9033 149.64 40.7571 149.497 40.6863C149.353 40.6154 149.189 40.626 149.006 40.7179L121.331 54.5262C121.147 54.6181 120.985 54.7688 120.842 54.9828C120.697 55.1968 120.625 55.4168 120.625 55.6443V56.8363L112.04 61.1191V59.8864C112.04 57.1016 112.955 54.264 114.783 51.3631C115.333 50.4935 116.012 49.716 116.822 49.0273C117.632 48.3401 118.298 47.8503 118.822 47.561C119.346 47.2717 120.154 46.8542 121.253 46.3057L149.046 32.4372H149.043ZM146.65 57.1302C147.488 56.7128 148.206 56.0361 148.808 55.0958C149.408 54.1585 149.709 53.2362 149.709 52.326V52.0713L120.544 66.621C120.333 66.725 120.163 66.8877 120.034 67.1093C119.903 67.3338 119.838 67.5402 119.838 67.7407V69.7389C119.838 70.2498 120.073 70.3869 120.544 70.1533L146.65 57.1272V57.1302Z" fill="#121212"/>
</svg>
