<svg width="172" height="38" viewBox="0 0 172 38" fill="none" xmlns="http://www.w3.org/2000/svg">
<g clip-path="url(#clip0_164_168)">
<path d="M53.6769 5.94523C53.0452 3.62212 51.1931 1.788 48.8471 1.16247C44.5577 0 27.4021 0 27.4021 0C27.4021 0 10.2483 0 5.95892 1.11819C3.65771 1.74371 1.76084 3.62212 1.12918 5.94523C0 10.1929 0 19 0 19C0 19 0 27.8514 1.12918 32.0529C1.76084 34.3779 3.61113 36.212 5.95892 36.8375C10.293 38 27.4021 38 27.4021 38C27.4021 38 44.5577 38 48.8471 36.8818C51.1931 36.2563 53.0452 34.424 53.6769 32.0991C54.806 27.8514 54.806 19.0443 54.806 19.0443C54.806 19.0443 54.8508 10.1929 53.6769 5.94523ZM21.9407 27.1355V10.8645L36.2063 19L21.9407 27.1355Z" fill="#121212"/>
<path d="M79.5903 34.6012C78.5077 33.8853 77.74 32.7689 77.2872 31.2042C76.8363 29.6838 76.6108 27.6282 76.6108 25.1243V21.6811C76.6108 19.1329 76.881 17.0774 77.3785 15.5126C77.9208 13.9479 78.7332 12.8297 79.8158 12.1156C80.9449 11.3997 82.389 11.0436 84.1946 11.0436C86.0001 11.0436 87.3995 11.4015 88.484 12.1156C89.5684 12.8297 90.3342 13.9941 90.8318 15.5126C91.3293 17.0331 91.5994 19.0886 91.5994 21.6811V25.1243C91.5994 27.6725 91.374 29.6838 90.8765 31.2485C90.379 32.7689 89.6131 33.9314 88.5287 34.6455C87.4442 35.3596 85.9554 35.7176 84.1051 35.7176C82.2083 35.6733 80.6748 35.3153 79.5903 34.5994V34.6012ZM85.6834 30.8462C86.0001 30.086 86.1343 28.7907 86.1343 27.047V19.6256C86.1343 17.9262 85.9983 16.6751 85.6834 15.8706C85.3666 15.0661 84.871 14.7081 84.1033 14.7081C83.3803 14.7081 82.8399 15.1104 82.5679 15.8706C82.2511 16.6751 82.117 17.9262 82.117 19.6256V27.047C82.117 28.7907 82.253 30.086 82.5679 30.8462C82.8381 31.6065 83.3803 32.0087 84.148 32.0087C84.871 32.0087 85.3666 31.6507 85.6834 30.8462Z" fill="#121212"/>
<path d="M162.926 25.1686V26.3753C162.926 27.8958 162.971 29.0582 163.062 29.8185C163.151 30.5787 163.332 31.1599 163.649 31.4718C163.919 31.8297 164.372 32.0087 165.003 32.0087C165.816 32.0087 166.358 31.695 166.673 31.0695C166.988 30.444 167.124 29.4162 167.171 27.94L171.82 28.2076C171.864 28.4309 171.864 28.7003 171.864 29.0564C171.864 31.2466 171.277 32.9018 170.059 33.9738C168.84 35.0459 167.124 35.5828 164.912 35.5828C162.249 35.5828 160.397 34.7341 159.315 33.0789C158.232 31.4238 157.69 28.8774 157.69 25.39V21.2327C157.69 17.6568 158.232 15.0643 159.359 13.4091C160.487 11.754 162.384 10.9495 165.048 10.9495C166.899 10.9495 168.344 11.3074 169.338 11.9772C170.331 12.647 171.007 13.721 171.413 15.1067C171.82 16.5367 172 18.5037 172 21.0076V25.0763H162.926V25.1649V25.1686ZM163.602 15.1547C163.332 15.5126 163.151 16.0496 163.06 16.808C162.969 17.5663 162.924 18.7307 162.924 20.2954V21.9948H166.897V20.2954C166.897 18.7749 166.852 17.6125 166.761 16.808C166.671 16.0035 166.444 15.4665 166.174 15.1547C165.903 14.841 165.451 14.662 164.91 14.662C164.279 14.6177 163.872 14.7967 163.6 15.1547H163.602Z" fill="#121212"/>
<path d="M66.4072 24.722L60.2676 2.68298H65.6395L67.8066 12.6526C68.3488 15.1122 68.755 17.2121 69.0252 18.9558H69.1612C69.342 17.7047 69.7482 15.6473 70.3799 12.6969L72.6363 2.68298H78.0083L71.7792 24.722V35.2729H66.452V24.722H66.4072Z" fill="#121212"/>
<path d="M109.068 11.4901V35.3171H104.826L104.375 32.411H104.239C103.109 34.6012 101.349 35.7194 99.0473 35.7194C97.4672 35.7194 96.2933 35.1825 95.5257 34.1547C94.758 33.1269 94.3965 31.5179 94.3965 29.2815V11.4901H99.8132V28.9697C99.8132 30.0417 99.9492 30.802 100.175 31.2503C100.4 31.6987 100.806 31.9201 101.349 31.9201C101.799 31.9201 102.252 31.7854 102.703 31.4736C103.154 31.2061 103.471 30.8481 103.652 30.4015V11.4901H109.068Z" fill="#121212"/>
<path d="M136.832 11.4901V35.3171H132.589L132.138 32.411H132.002C130.873 34.6012 129.112 35.7194 126.811 35.7194C125.23 35.7194 124.057 35.1825 123.289 34.1547C122.521 33.1269 122.16 31.5179 122.16 29.2815V11.4901H127.576V28.9697C127.576 30.0417 127.712 30.802 127.938 31.2503C128.163 31.6987 128.57 31.9201 129.112 31.9201C129.563 31.9201 130.015 31.7854 130.466 31.4736C130.917 31.2061 131.234 30.8481 131.415 30.4015V11.4901H136.832Z" fill="#121212"/>
<path d="M123.787 7.0192H118.415V35.2729H113.132V7.0192H107.76V2.68298H123.787V7.0192Z" fill="#121212"/>
<path d="M154.755 15.2893C154.438 13.7689 153.898 12.6968 153.175 12.0252C152.452 11.3535 151.414 10.9974 150.151 10.9974C149.158 10.9974 148.209 11.265 147.352 11.8462C146.495 12.3832 145.817 13.1434 145.366 14.0365H145.321V1.4762H140.085V35.2728H144.555L145.097 33.0383H145.233C145.64 33.8428 146.271 34.4683 147.13 34.961C147.987 35.4075 148.891 35.6769 149.929 35.6769C151.779 35.6769 153.089 34.8281 153.946 33.173C154.803 31.5179 155.256 28.8811 155.256 25.3494V21.5944C155.211 18.8672 155.075 16.7655 154.759 15.2912L154.755 15.2893ZM149.789 24.9914C149.789 26.7351 149.7 28.0766 149.564 29.0601C149.428 30.0435 149.157 30.7595 148.841 31.1617C148.479 31.564 148.028 31.7873 147.486 31.7873C147.035 31.7873 146.629 31.6987 146.267 31.4736C145.906 31.2503 145.591 30.9366 145.364 30.5344V17.0331C145.545 16.4075 145.861 15.8706 146.312 15.424C146.763 15.0218 147.261 14.7985 147.756 14.7985C148.299 14.7985 148.749 15.0218 149.02 15.424C149.336 15.8706 149.517 16.5865 149.651 17.57C149.787 18.5978 149.832 20.0297 149.832 21.8619V24.9914H149.787H149.789Z" fill="#121212"/>
</g>
<defs>
<clipPath id="clip0_164_168">
<rect width="172" height="38" fill="white"/>
</clipPath>
</defs>
</svg>
