<svg width="165" height="55" viewBox="0 0 165 55" fill="none" xmlns="http://www.w3.org/2000/svg">
<g clip-path="url(#clip0_1420_428)">
<path d="M68.9799 1.3848H72.7149V0.499804H64.3599V1.3848H68.0799V10.9998H68.9799V1.3848ZM76.0449 3.4998C75.6315 3.4946 75.2245 3.60218 74.8677 3.81098C74.5109 4.01977 74.2178 4.32187 74.0199 4.6848L73.8849 3.4998H73.1849V10.9998H74.0399V6.7398C74.0399 5.2398 74.7149 4.3248 76.0349 4.3248H76.9649V3.4998H76.0449ZM83.7849 3.4998V7.6098C83.7849 9.1848 82.9749 10.3248 81.4599 10.3248C80.2149 10.3248 79.3149 9.5298 79.3149 7.8348V3.4998H78.4449V7.9998C78.4449 9.9198 79.5449 11.1498 81.3249 11.1498C81.8297 11.1799 82.3324 11.0627 82.7718 10.8124C83.2112 10.562 83.5684 10.1894 83.7999 9.7398L83.9349 10.9998H84.6349V3.4998H83.7849ZM86.4849 8.8548C86.5299 10.2498 87.6249 11.1498 89.5899 11.1498C91.2849 11.1498 92.5749 10.3248 92.5749 8.89981C92.5749 7.71481 91.8999 7.1148 90.5649 6.9198L88.9749 6.6798C87.9549 6.5448 87.5199 6.1698 87.5199 5.4498C87.5199 4.5798 88.3299 4.0848 89.4849 4.0848C90.6699 4.0848 91.5249 4.6248 91.5549 5.6448H92.4249C92.3949 4.1448 91.1649 3.3498 89.4699 3.3498C87.8649 3.3498 86.6799 4.1748 86.6799 5.4498C86.6799 6.6348 87.3999 7.2498 88.8099 7.4598L90.4149 7.6998C91.3149 7.8198 91.7049 8.2098 91.7049 8.9748C91.7049 9.8898 90.8649 10.4148 89.5599 10.4148C88.2549 10.4148 87.4299 9.8448 87.3849 8.8548H86.4849ZM96.5049 10.9998H97.4499V10.1998H96.6249C96.4943 10.2159 96.3617 10.2015 96.2376 10.1577C96.1136 10.1139 96.0013 10.0419 95.9097 9.94746C95.8182 9.85298 95.7497 9.73854 95.7099 9.61315C95.67 9.48776 95.6597 9.35483 95.6799 9.2248V4.2798H97.4649V3.4998H95.6799V1.5798H94.8249V2.8698C94.8249 3.3048 94.6599 3.4998 94.1799 3.4998H93.3999V4.2798H94.8249V9.2798C94.7973 9.50883 94.8215 9.74111 94.8956 9.95956C94.9697 10.178 95.0918 10.3771 95.253 10.5421C95.4142 10.7071 95.6103 10.8339 95.827 10.9131C96.0436 10.9923 96.2753 11.0219 96.5049 10.9998ZM105.97 7.0248C106.005 6.54334 105.939 6.0598 105.774 5.60591C105.61 5.15201 105.351 4.73799 105.016 4.391C104.68 4.04401 104.275 3.77188 103.826 3.59244C103.378 3.41301 102.897 3.33032 102.415 3.3498C101.913 3.3367 101.413 3.43029 100.95 3.62441C100.486 3.81852 100.069 4.10873 99.7261 4.47589C99.383 4.84305 99.1218 5.2788 98.9595 5.75437C98.7973 6.22995 98.7377 6.73453 98.7849 7.2348C98.7384 7.73746 98.7993 8.24427 98.9637 8.72156C99.1281 9.19886 99.3921 9.63573 99.7382 10.0032C100.084 10.3706 100.505 10.6602 100.971 10.8527C101.438 11.0452 101.94 11.1363 102.445 11.1198C103.205 11.1556 103.954 10.9357 104.574 10.4952C105.194 10.0547 105.649 9.419 105.865 8.6898H104.98C104.788 9.20127 104.44 9.63914 103.985 9.94085C103.53 10.2426 102.991 10.3927 102.445 10.3698C102.069 10.3844 101.695 10.3195 101.347 10.1793C100.998 10.039 100.683 9.82664 100.423 9.55607C100.162 9.28551 99.9614 8.96287 99.8343 8.60935C99.7072 8.25582 99.6562 7.8794 99.6849 7.5048H105.97V7.0248ZM102.415 4.0848C102.77 4.07165 103.123 4.13233 103.453 4.26301C103.783 4.39369 104.083 4.59151 104.332 4.84394C104.582 5.09637 104.776 5.3979 104.903 5.72942C105.03 6.06094 105.087 6.41522 105.07 6.7698H99.6999C99.6952 6.41337 99.7624 6.05965 99.8976 5.7298C100.033 5.39996 100.233 5.10076 100.487 4.8501C100.74 4.59944 101.041 4.40248 101.373 4.27099C101.704 4.13949 102.059 4.07617 102.415 4.0848ZM113.995 0.0498047V4.8348C113.682 4.36118 113.253 3.97584 112.749 3.71579C112.245 3.45574 111.682 3.32971 111.115 3.3498C110.613 3.35206 110.117 3.45836 109.658 3.66199C109.2 3.86563 108.788 4.16217 108.45 4.5329C108.111 4.90362 107.854 5.34047 107.693 5.81585C107.532 6.29123 107.471 6.79482 107.515 7.2948C107.472 7.7902 107.534 8.28902 107.696 8.75899C107.859 9.22895 108.118 9.65957 108.457 10.023C108.797 10.3864 109.209 10.6745 109.667 10.8686C110.124 11.0627 110.618 11.1585 111.115 11.1498C111.684 11.1638 112.248 11.0319 112.752 10.7668C113.256 10.5016 113.684 10.1119 113.995 9.6348L114.145 10.9998H114.865V0.0498047H113.995ZM111.19 10.3998C109.57 10.3998 108.415 9.2598 108.415 7.2998C108.415 5.3648 109.54 4.1348 111.19 4.1198C112.735 4.1048 113.965 5.3498 113.965 7.2998C114.007 7.68981 113.967 8.08429 113.846 8.45769C113.726 8.83109 113.529 9.17507 113.267 9.46734C113.006 9.7596 112.685 9.99364 112.328 10.1543C111.97 10.3149 111.582 10.3986 111.19 10.3998ZM119.86 7.2648C119.823 7.77289 119.894 8.28298 120.068 8.76185C120.242 9.24072 120.514 9.67764 120.868 10.0442C121.222 10.4107 121.649 10.6985 122.121 10.889C122.594 11.0795 123.101 11.1684 123.61 11.1498C124.119 11.1684 124.626 11.0795 125.099 10.889C125.571 10.6985 125.998 10.4107 126.352 10.0442C126.706 9.67764 126.978 9.24072 127.152 8.76185C127.326 8.28298 127.396 7.77289 127.36 7.2648C127.399 6.75464 127.331 6.24186 127.159 5.76001C126.986 5.27816 126.714 4.83808 126.361 4.46855C126.007 4.09902 125.579 3.80836 125.105 3.61558C124.631 3.42279 124.121 3.33223 123.61 3.3498C123.098 3.33223 122.589 3.42279 122.115 3.61558C121.641 3.80836 121.213 4.09902 120.859 4.46855C120.505 4.83808 120.233 5.27816 120.061 5.76001C119.889 6.24186 119.82 6.75464 119.86 7.2648ZM120.76 7.2498C120.714 6.85047 120.754 6.446 120.877 6.06332C121 5.68065 121.203 5.32856 121.473 5.03052C121.742 4.73247 122.072 4.49531 122.441 4.33482C122.81 4.17434 123.208 4.09422 123.61 4.0998C124.012 4.09422 124.41 4.17434 124.779 4.33482C125.147 4.49531 125.477 4.73247 125.747 5.03052C126.017 5.32856 126.22 5.68065 126.343 6.06332C126.466 6.446 126.506 6.85047 126.46 7.2498C126.504 7.64812 126.463 8.05129 126.339 8.43249C126.216 8.8137 126.012 9.16422 125.743 9.46076C125.473 9.7573 125.143 9.99307 124.776 10.1524C124.408 10.3117 124.011 10.3909 123.61 10.3848C123.209 10.3909 122.812 10.3117 122.444 10.1524C122.076 9.99307 121.747 9.7573 121.477 9.46076C121.207 9.16422 121.004 8.8137 120.88 8.43249C120.757 8.05129 120.716 7.64812 120.76 7.2498ZM132.745 3.3498C132.229 3.31165 131.713 3.42468 131.26 3.67509C130.807 3.9255 130.437 4.30243 130.195 4.7598L130.06 3.4998H129.355V10.9998H130.21V6.8898C130.21 5.3148 131.035 4.1748 132.61 4.1748C133.91 4.1748 134.83 4.9748 134.83 6.6648V10.9998H135.7V6.4998C135.746 6.09165 135.703 5.67838 135.573 5.28858C135.444 4.89878 135.231 4.54175 134.95 4.24219C134.669 3.94263 134.326 3.70769 133.946 3.55361C133.565 3.39953 133.155 3.32999 132.745 3.3498Z" fill="#242F46"/>
<path d="M132.951 19.281C131.316 19.3594 129.681 19.1094 128.144 18.5459C126.606 17.9824 125.197 17.1168 124 16C122.803 17.1169 121.394 17.9826 119.856 18.5461C118.319 19.1096 116.685 19.3595 115.049 19.281C115.049 25.159 113.79 33.581 124 37C134.21 33.58 132.951 25.159 132.951 19.281Z" fill="#3672FF"/>
<path d="M120 26.798L123.082 29.998L129 23.869L128.15 23L123.082 28.25L120.838 25.923L120 26.798Z" fill="white"/>
<path d="M75.7001 21.04V25.09H74.5481L73.9721 22.39H71.2361V32.524L73.1441 32.956V34H66.9881V32.956L68.9001 32.524V22.39H66.1421L65.5841 25.09H64.4321V21.04H75.7001ZM78.4181 29.392C78.3958 30.0876 78.5184 30.7802 78.7781 31.426C78.9328 31.8192 79.2072 32.1538 79.5626 32.3824C79.9179 32.6111 80.3362 32.7222 80.7581 32.7C81.3052 32.6984 81.8456 32.5786 82.3421 32.349C82.8711 32.1045 83.3294 31.7298 83.6741 31.26L84.6461 32.016C84.1967 32.6428 83.6167 33.1648 82.9461 33.546C82.1397 33.989 81.2288 34.2066 80.3091 34.176C79.517 34.1989 78.7324 34.016 78.0321 33.645C77.3997 33.2884 76.8934 32.7444 76.5831 32.088C76.3954 31.6966 76.2609 31.282 76.1831 30.855C76.0957 30.3649 76.0535 29.8678 76.0571 29.37C75.9676 27.9746 76.3758 26.5927 77.2091 25.47C77.6177 25.0051 78.1272 24.6399 78.6987 24.4025C79.2702 24.165 79.8885 24.0615 80.5061 24.1C81.1074 24.0929 81.705 24.1945 82.2701 24.4C82.7729 24.582 83.2304 24.8706 83.6111 25.246C83.9878 25.6292 84.2765 26.0899 84.4571 26.596C84.664 27.1763 84.7656 27.7889 84.7571 28.405C84.7571 28.5383 84.7541 28.6673 84.7481 28.792C84.7421 28.9166 84.7271 29.1166 84.7031 29.392H78.4181ZM80.4701 25.342C79.2341 25.342 78.5561 26.3086 78.4361 28.242H82.4001V27.774C82.4428 27.1346 82.2665 26.4997 81.9001 25.974C81.7288 25.763 81.5098 25.5956 81.2612 25.4858C81.0126 25.3759 80.7415 25.3266 80.4701 25.342ZM90.7841 24.1C91.3009 24.096 91.8158 24.1633 92.3141 24.3C92.7492 24.4165 93.1604 24.6084 93.5291 24.867C93.8591 25.1003 94.1325 25.4048 94.3291 25.758C94.5224 26.1109 94.6216 26.5076 94.6171 26.91C94.6329 27.1341 94.6026 27.359 94.5284 27.571C94.4541 27.7831 94.3373 27.9777 94.1851 28.143C94.0457 28.2813 93.8798 28.3901 93.6973 28.4628C93.5148 28.5355 93.3195 28.5706 93.1231 28.566C92.9188 28.5733 92.7155 28.5332 92.5291 28.449C92.3796 28.3761 92.2475 28.2717 92.1421 28.143C92.0411 28.0188 91.9675 27.8746 91.9261 27.72C91.8846 27.5674 91.8634 27.4101 91.8631 27.252C91.8558 26.9768 91.9344 26.7063 92.0881 26.478C92.2542 26.2506 92.4919 26.0857 92.7631 26.01C92.5627 25.771 92.3015 25.5907 92.0071 25.488C91.6451 25.3506 91.2603 25.2827 90.8731 25.288C90.5238 25.2817 90.1771 25.3499 89.8561 25.488C89.5528 25.6278 89.2943 25.849 89.1091 26.127C88.8796 26.4833 88.7207 26.8806 88.6411 27.297C88.5233 27.8865 88.469 28.4869 88.4791 29.088C88.4671 29.601 88.5093 30.1138 88.6051 30.618C88.6768 30.9553 88.7918 31.282 88.9471 31.59C89.1223 31.9193 89.3757 32.2006 89.6851 32.409C90.0311 32.6205 90.4319 32.7249 90.8371 32.709C91.0946 32.7069 91.3512 32.6768 91.6021 32.619C91.8741 32.5583 92.1394 32.4709 92.3941 32.358C92.6569 32.2411 92.9047 32.093 93.1321 31.917C93.3701 31.7329 93.5793 31.5145 93.7531 31.269L94.7251 32.025C94.2332 32.7416 93.5595 33.3146 92.7731 33.685C92.0283 34.0164 91.2214 34.1852 90.4061 34.18C89.6186 34.2063 88.8376 34.0296 88.1381 33.667C87.5208 33.3198 87.0198 32.798 86.6981 32.167C86.4817 31.7488 86.3213 31.304 86.2211 30.844C86.1036 30.3141 86.0462 29.7727 86.0501 29.23C86.0404 28.5119 86.1499 27.7972 86.3741 27.115C86.5711 26.5181 86.8864 25.9671 87.3011 25.495C87.7099 25.0402 88.2181 24.686 88.7861 24.46C89.4223 24.2111 90.101 24.0888 90.7841 24.1ZM103.168 29.176C103.168 28.792 103.162 28.4586 103.15 28.176C103.138 27.8933 103.121 27.6476 103.1 27.439C103.087 27.2595 103.057 27.0816 103.01 26.908C102.974 26.7791 102.928 26.6528 102.875 26.53C102.729 26.2437 102.502 26.0071 102.221 25.8501C101.941 25.6932 101.62 25.6228 101.3 25.648C100.96 25.649 100.626 25.7356 100.328 25.9C100.019 26.0652 99.763 26.3149 99.5901 26.62C99.4778 26.8302 99.3931 27.054 99.3381 27.286C99.2595 27.6221 99.2232 27.9668 99.2301 28.312V32.65L100.436 32.992V34H95.5541V32.992L96.9401 32.65V21.31L95.5541 20.968V19.96H99.2261V25.972C99.5158 25.4186 99.9397 24.9469 100.459 24.6C100.958 24.2692 101.544 24.0951 102.142 24.1C102.585 24.0888 103.026 24.1527 103.447 24.289C103.799 24.413 104.117 24.6186 104.374 24.889C104.774 25.3238 105.056 25.8536 105.193 26.428C105.387 27.2503 105.475 28.0942 105.454 28.939V32.65L106.84 32.992V34H101.962V32.992L103.168 32.65V29.176ZM75.2321 44.154C75.2348 44.826 74.9915 45.4759 74.5481 45.981C74.3308 46.228 74.0719 46.4352 73.7831 46.593C73.4843 46.7565 73.1578 46.8633 72.8201 46.908V46.98C73.6666 47.1355 74.4418 47.5556 75.0341 48.18C75.5766 48.7821 75.8666 49.5698 75.8441 50.38C75.8504 51.042 75.666 51.6918 75.3131 52.252C74.9901 52.787 74.5262 53.2229 73.9721 53.512C73.7956 53.5993 73.6119 53.6716 73.4231 53.728C73.1958 53.7945 72.9643 53.8456 72.7301 53.881C72.4319 53.9264 72.1315 53.9565 71.8301 53.971C71.4941 53.9903 71.1041 54 70.6601 54H64.7381V52.956L66.2501 52.578V42.462L64.7381 42.084V41.04H71.3261C72.3786 40.9715 73.4187 41.299 74.2421 41.958C74.5507 42.2413 74.7987 42.5842 74.9711 42.966C75.1426 43.3386 75.2317 43.7438 75.2321 44.154ZM68.5901 47.9V52.65H70.0301C70.4759 52.6577 70.9215 52.6276 71.3621 52.56C71.6587 52.5136 71.9449 52.4162 72.2081 52.272C72.546 52.0903 72.8218 51.8117 73.0001 51.472C73.2104 51.0816 73.3159 50.6433 73.3061 50.2C73.318 49.832 73.2375 49.4669 73.0721 49.138C72.9247 48.8604 72.7227 48.6154 72.4781 48.418C72.2307 48.235 71.9492 48.1034 71.6501 48.031C71.2243 47.9308 70.7874 47.8854 70.3501 47.896L68.5901 47.9ZM68.5901 46.586H70.3001C70.6359 46.6147 70.974 46.5735 71.2931 46.4651C71.6122 46.3567 71.9054 46.1833 72.1541 45.956C72.3461 45.7718 72.5044 45.5555 72.6221 45.317C72.7528 45.0381 72.8205 44.7339 72.8205 44.426C72.8205 44.118 72.7528 43.8138 72.6221 43.535C72.5044 43.2964 72.3461 43.0801 72.1541 42.896C71.6541 42.4888 71.014 42.2949 70.3721 42.356H68.5901V46.586ZM79.5901 49.394C79.5678 50.0896 79.6904 50.7822 79.9501 51.428C80.1041 51.8219 80.3783 52.1574 80.7337 52.3868C81.0891 52.6162 81.5077 52.7279 81.9301 52.706C82.4772 52.7044 83.0176 52.5846 83.5141 52.355C84.0431 52.1105 84.5014 51.7358 84.8461 51.266L85.8181 52.022C85.3687 52.6488 84.7887 53.1708 84.1181 53.552C83.3117 53.995 82.4008 54.2126 81.4811 54.182C80.689 54.2049 79.9044 54.022 79.2041 53.651C78.5717 53.2944 78.0654 52.7504 77.7551 52.094C77.5674 51.7026 77.4329 51.288 77.3551 50.861C77.2677 50.3709 77.2255 49.8738 77.2291 49.376C77.1396 47.9806 77.5478 46.5987 78.3811 45.476C78.7889 45.0103 79.2978 44.6442 79.869 44.4056C80.4401 44.1671 81.0583 44.0626 81.6761 44.1C82.2774 44.0929 82.875 44.1945 83.4401 44.4C83.9465 44.5789 84.406 44.8696 84.7846 45.2505C85.1632 45.6313 85.4512 46.0926 85.6271 46.6C85.834 47.1803 85.9356 47.7929 85.9271 48.409C85.9271 48.5423 85.9241 48.6713 85.9181 48.796C85.9121 48.9206 85.8971 49.1206 85.8731 49.396L79.5901 49.394ZM81.6421 45.344C80.4061 45.344 79.7281 46.3106 79.6081 48.244H83.5681V47.776C83.6108 47.1366 83.4345 46.5017 83.0681 45.976C82.8972 45.7649 82.6787 45.5973 82.4304 45.4871C82.1822 45.3769 81.9113 45.3272 81.6401 45.342L81.6421 45.344ZM94.5121 49.178C94.5121 48.794 94.5061 48.4606 94.4941 48.178C94.4821 47.8953 94.4671 47.6493 94.4491 47.44C94.4364 47.2605 94.4063 47.0826 94.3591 46.909C94.3226 46.7801 94.2775 46.6538 94.2241 46.531C94.0776 46.2432 93.8487 46.0056 93.5666 45.8485C93.2844 45.6914 92.9619 45.622 92.6401 45.649C92.3001 45.65 91.9658 45.7366 91.6681 45.901C91.3589 46.0662 91.103 46.3159 90.9301 46.621C90.8178 46.8312 90.7331 47.055 90.6781 47.287C90.5994 47.6231 90.5632 47.9678 90.5701 48.313V52.65L91.7761 52.992V54H86.9001V52.992L88.2861 52.65V41.31L86.9001 40.968V39.96H90.5721V45.972C90.8604 45.4192 91.2826 44.9475 91.8001 44.6C92.2987 44.2692 92.8848 44.0951 93.4831 44.1C93.9257 44.0888 94.3669 44.1527 94.7881 44.289C95.1401 44.413 95.4578 44.6186 95.7151 44.889C96.1148 45.3238 96.3967 45.8536 96.5341 46.428C96.7282 47.2503 96.8159 48.0942 96.7951 48.939V52.65L98.1811 52.992V54H93.3001V52.992L94.5061 52.65L94.5121 49.178ZM101.442 49.394C101.42 50.0896 101.542 50.7822 101.802 51.428C101.957 51.8205 102.231 52.1544 102.586 52.3826C102.941 52.6109 103.359 52.7219 103.78 52.7C104.327 52.6984 104.868 52.5786 105.364 52.349C105.894 52.1062 106.354 51.7328 106.7 51.264L107.672 52.02C107.223 52.6468 106.643 53.1688 105.972 53.55C105.166 53.993 104.255 54.2106 103.335 54.18C102.543 54.2029 101.758 54.02 101.058 53.649C100.422 53.2938 99.9128 52.7497 99.6001 52.092C99.4124 51.7006 99.2779 51.2859 99.2001 50.859C99.1126 50.3689 99.0705 49.8718 99.0741 49.374C98.9846 47.9786 99.3928 46.5967 100.226 45.474C100.635 45.0077 101.145 44.6414 101.717 44.4032C102.29 44.165 102.909 44.0612 103.528 44.1C104.129 44.0929 104.727 44.1945 105.292 44.4C105.798 44.5789 106.258 44.8696 106.637 45.2505C107.015 45.6313 107.303 46.0926 107.479 46.6C107.686 47.1803 107.788 47.7929 107.779 48.409C107.779 48.5423 107.776 48.6713 107.77 48.796C107.764 48.9206 107.749 49.1206 107.725 49.396L101.442 49.394ZM103.494 45.344C102.258 45.344 101.58 46.3106 101.46 48.244H105.42V47.776C105.463 47.1366 105.286 46.5017 104.92 45.976C104.749 45.7649 104.531 45.5973 104.282 45.4871C104.034 45.3769 103.763 45.3272 103.492 45.342L103.494 45.344ZM110.352 45.632L108.966 45.29V44.28H112.1L112.5 46.08H112.572C112.906 45.4839 113.388 44.9846 113.972 44.631C114.531 44.2834 115.177 44.0995 115.835 44.1C116.292 44.0897 116.745 44.1852 117.158 44.379C117.495 44.5301 117.784 44.7696 117.995 45.072C118.215 45.44 118.373 45.8412 118.463 46.26C118.816 45.6092 119.33 45.0605 119.957 44.667C120.544 44.2961 121.225 44.0995 121.919 44.1C122.368 44.0923 122.813 44.1877 123.219 44.379C123.58 44.5448 123.886 44.8102 124.101 45.144C124.219 45.3344 124.31 45.5404 124.371 45.756C124.454 46.0479 124.514 46.3458 124.551 46.647C124.599 47.001 124.632 47.418 124.651 47.898C124.67 48.378 124.679 48.942 124.678 49.59V52.65L126.064 52.992V54H121.168V52.992L122.374 52.65V49.176C122.374 48.792 122.368 48.4586 122.356 48.176C122.344 47.8933 122.326 47.6473 122.302 47.438C122.284 47.2592 122.253 47.0819 122.212 46.907C122.181 46.7776 122.139 46.6511 122.086 46.529C121.998 46.2818 121.83 46.0708 121.609 45.929C121.421 45.8177 121.207 45.7586 120.988 45.758C120.707 45.7531 120.427 45.7957 120.16 45.884C119.901 45.9804 119.663 46.1272 119.46 46.316C119.203 46.546 119.003 46.8325 118.875 47.153C118.734 47.5491 118.658 47.9655 118.65 48.386V52.65L119.856 52.992V54H115.156V52.992L116.362 52.65V49.176C116.362 48.792 116.356 48.4586 116.344 48.176C116.332 47.8933 116.314 47.6473 116.29 47.438C116.272 47.2592 116.241 47.0819 116.2 46.907C116.169 46.7776 116.127 46.6511 116.074 46.529C115.986 46.2818 115.818 46.0708 115.597 45.929C115.409 45.8177 115.195 45.7586 114.976 45.758C114.695 45.7531 114.415 45.7957 114.148 45.884C113.889 45.9804 113.651 46.1272 113.448 46.316C113.191 46.546 112.991 46.8325 112.863 47.153C112.722 47.5491 112.646 47.9655 112.638 48.386V52.65L113.844 52.992V54H108.964V52.992L110.35 52.65L110.352 45.632ZM136.344 49.142C136.349 49.8781 136.237 50.6102 136.011 51.311C135.816 51.9404 135.488 52.5204 135.048 53.011C134.658 53.427 134.169 53.7368 133.626 53.911C132.343 54.2709 130.985 54.2709 129.702 53.911C129.159 53.7368 128.67 53.427 128.28 53.011C127.84 52.5204 127.512 51.9404 127.317 51.311C126.873 49.899 126.873 48.3849 127.317 46.973C127.512 46.3435 127.84 45.7635 128.28 45.273C128.67 44.8569 129.159 44.5472 129.702 44.373C130.985 44.013 132.343 44.013 133.626 44.373C134.169 44.5472 134.658 44.8569 135.048 45.273C135.488 45.7635 135.816 46.3435 136.011 46.973C136.236 47.6732 136.348 48.4046 136.342 49.14L136.344 49.142ZM130.026 52.256C130.234 52.4829 130.488 52.6641 130.769 52.7881C131.051 52.9121 131.356 52.9761 131.664 52.9761C131.972 52.9761 132.277 52.9121 132.559 52.7881C132.841 52.6641 133.094 52.4829 133.302 52.256C133.767 51.2874 133.966 50.2127 133.878 49.142C133.966 48.0712 133.767 46.9965 133.302 46.028C133.094 45.801 132.841 45.6198 132.559 45.4958C132.277 45.3719 131.972 45.3079 131.664 45.3079C131.356 45.3079 131.051 45.3719 130.769 45.4958C130.488 45.6198 130.234 45.801 130.026 46.028C129.561 46.9965 129.362 48.0712 129.45 49.142C129.362 50.2118 129.56 51.2858 130.024 52.254L130.026 52.256ZM137.1 44.532L138.864 44.28L139.08 42.048L141.13 41.76V44.28H143.43V45.45H141.13V51.336C141.13 51.744 141.136 52.023 141.148 52.173C141.155 52.2987 141.179 52.4228 141.22 52.542C141.263 52.6199 141.335 52.6781 141.42 52.704C141.572 52.7473 141.73 52.7655 141.888 52.758H143.148V53.55C142.542 53.7428 141.926 53.9021 141.303 54.027C140.886 54.1156 140.461 54.1668 140.034 54.18C139.81 54.2048 139.585 54.1522 139.395 54.0311C139.205 53.9099 139.062 53.7274 138.99 53.514C138.923 53.3381 138.884 53.1529 138.873 52.965C138.855 52.743 138.846 52.404 138.846 51.948V45.448H137.1V44.532ZM151.536 49.176C151.536 48.792 151.53 48.4586 151.518 48.176C151.506 47.8933 151.491 47.6473 151.473 47.438C151.46 47.2585 151.43 47.0806 151.383 46.907C151.347 46.7781 151.301 46.6518 151.248 46.529C151.102 46.2412 150.873 46.0036 150.591 45.8465C150.308 45.6894 149.986 45.62 149.664 45.647C149.324 45.648 148.99 45.7346 148.692 45.899C148.383 46.0642 148.127 46.3139 147.954 46.619C147.842 46.8292 147.757 47.053 147.702 47.285C147.623 47.6211 147.587 47.9658 147.594 48.311V52.65L148.8 52.992V54H143.92V52.992L145.306 52.65V41.31L143.92 40.968V39.96H147.592V45.972C147.882 45.4186 148.306 44.9468 148.825 44.6C149.324 44.2692 149.91 44.0951 150.508 44.1C150.951 44.0888 151.392 44.1527 151.813 44.289C152.165 44.413 152.483 44.6186 152.74 44.889C153.14 45.3238 153.422 45.8536 153.559 46.428C153.753 47.2503 153.841 48.0942 153.82 48.939V52.65L155.206 52.992V54H150.328V52.992L151.534 52.65L151.536 49.176ZM159.8 53.082C160.085 53.0836 160.368 53.0534 160.646 52.992C160.888 52.9402 161.121 52.8554 161.339 52.74C161.524 52.6431 161.685 52.5044 161.807 52.335C161.921 52.1746 161.98 51.9824 161.978 51.786C161.982 51.5557 161.902 51.3319 161.753 51.156C161.587 50.9632 161.385 50.8043 161.159 50.688C160.894 50.5476 160.617 50.4302 160.331 50.337C160.025 50.235 159.722 50.135 159.422 50.037C159.05 49.9288 158.686 49.7934 158.333 49.632C157.987 49.4752 157.666 49.269 157.379 49.02C157.099 48.7762 156.869 48.4795 156.704 48.147C156.528 47.7761 156.442 47.3692 156.452 46.959C156.438 46.5638 156.515 46.1708 156.677 45.8102C156.84 45.4497 157.083 45.1314 157.388 44.88C158.162 44.3109 159.112 44.0336 160.07 44.097C160.574 44.091 161.076 44.1515 161.564 44.277C161.97 44.3793 162.354 44.5531 162.698 44.79C162.996 44.9971 163.245 45.2675 163.427 45.582C163.601 45.8864 163.691 46.2314 163.688 46.582C163.701 46.7553 163.678 46.9294 163.62 47.0934C163.563 47.2575 163.473 47.4081 163.355 47.536C163.233 47.6476 163.089 47.7337 162.933 47.7894C162.777 47.845 162.612 47.869 162.446 47.86C162.122 47.8794 161.802 47.7803 161.546 47.581C161.446 47.5029 161.365 47.4032 161.309 47.2895C161.253 47.1757 161.223 47.0508 161.222 46.924C161.223 46.7155 161.286 46.5121 161.402 46.339C161.517 46.1579 161.678 46.0117 161.87 45.916C161.696 45.6828 161.463 45.4996 161.195 45.385C160.861 45.2492 160.502 45.1848 160.142 45.196C159.694 45.1614 159.248 45.2856 158.882 45.547C158.743 45.6684 158.634 45.8198 158.562 45.9897C158.49 46.1597 158.458 46.3438 158.468 46.528C158.453 46.7311 158.488 46.9348 158.569 47.1214C158.651 47.3081 158.777 47.472 158.936 47.599C159.319 47.8664 159.745 48.0644 160.196 48.184C160.676 48.328 161.15 48.478 161.618 48.634C162.056 48.7762 162.476 48.9695 162.869 49.21C163.219 49.423 163.52 49.7083 163.751 50.047C163.981 50.4039 164.097 50.8224 164.084 51.247C164.092 51.6868 163.976 52.1201 163.751 52.498C163.521 52.8717 163.207 53.1861 162.833 53.416C162.407 53.6769 161.942 53.8683 161.456 53.983C160.896 54.1194 160.322 54.1865 159.746 54.183C158.807 54.236 157.873 54.0173 157.055 53.553C156.758 53.3786 156.512 53.1284 156.343 52.828C156.174 52.5276 156.087 52.1877 156.092 51.843C156.08 51.6329 156.11 51.4226 156.181 51.2246C156.252 51.0266 156.363 50.845 156.506 50.691C156.634 50.558 156.788 50.4527 156.958 50.3815C157.129 50.3103 157.312 50.2747 157.496 50.277C157.781 50.2763 158.06 50.361 158.296 50.52C158.413 50.5926 158.509 50.695 158.574 50.8167C158.639 50.9384 158.67 51.0752 158.665 51.213C158.662 51.438 158.592 51.6572 158.465 51.843C158.353 52.0269 158.199 52.1813 158.015 52.293C158.169 52.5163 158.372 52.7012 158.609 52.833C158.977 53.0214 159.388 53.1074 159.8 53.082Z" fill="#242F46"/>
<path fill-rule="evenodd" clip-rule="evenodd" d="M38.39 23.719H31.544V15.161H48.66C48.66 16.852 44.309 23.719 38.39 23.719ZM0 2.934V0L9.975 0.02V0.01L36.768 0C44.253 0 48.66 5.94 48.66 8.558H7.091C7.091 5.8 5.148 2.934 0 2.934ZM7.091 15.161H23.963V23.719H7.091V15.161ZM23.963 38.879H7.091V30.321H23.963V38.879ZM31.543 30.321H39.123C46.806 30.321 50.616 36.473 50.616 38.879H31.544L31.543 30.321ZM7.091 45.482H23.963V49.15H31.543V45.482L50.616 45.488C50.616 48.507 45.127 54.041 39.368 54.041H0V51.106C5.107 51.106 7.091 48.406 7.091 45.482Z" fill="#3672FF"/>
</g>
<defs>
<clipPath id="clip0_1420_428">
<rect width="164.08" height="54.18" fill="white"/>
</clipPath>
</defs>
</svg>
