<svg width="172" height="59" viewBox="0 0 172 59" fill="none" xmlns="http://www.w3.org/2000/svg">
<path d="M154.588 24.0293C156.648 24.0293 158.318 22.3596 158.318 20.2999C158.318 18.2402 156.648 16.5704 154.588 16.5704C152.529 16.5704 150.859 18.2402 150.859 20.2999C150.859 22.3596 152.529 24.0293 154.588 24.0293Z" fill="#121212"/>
<path d="M101.323 36.2021C103.153 36.2021 104.208 34.8302 104.138 33.4931C104.103 32.7894 104.032 32.3317 103.962 31.9802C102.836 27.1254 98.8959 23.5363 94.2162 23.5363C88.6578 23.5363 84.1545 28.5675 84.1545 34.7594C84.1545 40.9513 88.6578 45.9825 94.2162 45.9825C97.6998 45.9825 100.198 44.7162 101.992 42.7108C102.871 41.7258 102.696 40.2129 101.64 39.4738C100.76 38.8758 99.6697 39.0869 98.8605 39.7552C98.0867 40.4241 96.6092 41.7606 94.2162 41.7606C91.4022 41.7606 89.0099 39.3328 88.482 36.1313H101.323V36.2021ZM94.1815 27.7936C96.7141 27.7936 98.8959 29.7636 99.7051 32.4727H88.6578C89.467 29.7289 91.6482 27.7936 94.1815 27.7936ZM84.3657 25.7528C84.3657 24.6977 83.5918 23.853 82.6068 23.6773C79.5456 23.2202 76.6608 24.3455 75.0076 26.4217V26.1397C75.0076 24.838 73.9518 24.0294 72.8966 24.0294C71.7352 24.0294 70.7856 24.979 70.7856 26.1397V43.379C70.7856 44.505 71.6296 45.49 72.7556 45.5602C73.9872 45.6304 75.0076 44.6808 75.0076 43.4492V34.5482C75.0076 30.6083 77.9626 27.3713 82.0435 27.829H82.4658C83.521 27.7582 84.3657 26.8434 84.3657 25.7528ZM156.699 28.0048C156.699 26.8434 155.749 25.8938 154.589 25.8938C153.427 25.8938 152.478 26.8434 152.478 28.0048V43.4492C152.478 44.6106 153.427 45.5602 154.589 45.5602C155.749 45.5602 156.699 44.6106 156.699 43.4492V28.0048ZM125.317 16.3246C125.317 15.1632 124.367 14.2136 123.206 14.2136C122.045 14.2136 121.096 15.1632 121.096 16.3246V25.7181C119.653 24.2753 117.859 23.5717 115.712 23.5717C110.154 23.5717 105.65 28.6029 105.65 34.7948C105.65 40.9867 110.154 46.0179 115.712 46.0179C117.859 46.0179 119.688 45.2789 121.13 43.8361C121.306 44.8218 122.186 45.5602 123.206 45.5602C124.367 45.5602 125.317 44.6106 125.317 43.4492V16.3246ZM115.748 41.8307C112.511 41.8307 109.907 38.7 109.907 34.7948C109.907 30.925 112.511 27.7582 115.748 27.7582C118.985 27.7582 121.588 30.8896 121.588 34.7948C121.588 38.7 118.949 41.8307 115.748 41.8307ZM147.341 16.3246C147.341 15.1632 146.391 14.2136 145.23 14.2136C144.069 14.2136 143.119 15.1632 143.119 16.3246V25.7181C141.677 24.2753 139.883 23.5717 137.736 23.5717C132.178 23.5717 127.674 28.6029 127.674 34.7948C127.674 40.9867 132.178 46.0179 137.736 46.0179C139.883 46.0179 141.712 45.2789 143.154 43.8361C143.33 44.8218 144.209 45.5602 145.23 45.5602C146.391 45.5602 147.341 44.6106 147.341 43.4492V16.3246ZM137.736 41.8307C134.499 41.8307 131.896 38.7 131.896 34.7948C131.896 30.925 134.499 27.7582 137.736 27.7582C140.973 27.7582 143.577 30.8896 143.577 34.7948C143.577 38.7 140.973 41.8307 137.736 41.8307ZM167.394 43.4846V27.7936H169.259C170.244 27.7936 171.123 27.0546 171.194 26.0342C171.264 24.9436 170.385 24.0294 169.329 24.0294H167.394V21.0738C167.394 19.9478 166.55 18.9628 165.424 18.8927C164.192 18.8225 163.173 19.7721 163.173 21.0036V24.0642H161.413C160.428 24.0642 159.549 24.8033 159.479 25.8237C159.408 26.9142 160.288 27.829 161.343 27.829H163.137V43.52C163.137 44.6808 164.088 45.6304 165.248 45.6304C166.48 45.5602 167.394 44.6454 167.394 43.4846Z" fill="#121212"/>
<path d="M29.4822 58.9643C45.7647 58.9643 58.9643 45.7647 58.9643 29.4822C58.9643 13.1996 45.7647 0 29.4822 0C13.1996 0 0 13.1996 0 29.4822C0 45.7647 13.1996 58.9643 29.4822 58.9643Z" fill="#121212"/>
<path d="M49.1483 29.4821C49.1483 27.0898 47.2137 25.19 44.8562 25.19C43.6954 25.19 42.6396 25.6471 41.8658 26.3862C38.9108 24.2752 34.8646 22.9033 30.3613 22.7275L32.3313 13.5098L38.7344 14.8817C38.8052 16.5002 40.1417 17.8019 41.7956 17.8019C43.4843 17.8019 44.8562 16.43 44.8562 14.7407C44.8562 13.0521 43.4843 11.6802 41.7956 11.6802C40.5995 11.6802 39.5437 12.3838 39.0512 13.4042L31.9097 11.8913C31.6985 11.8559 31.4873 11.8913 31.3463 11.9969C31.1706 12.1025 31.065 12.2783 31.0302 12.4894L28.8484 22.7623C24.275 22.9033 20.1586 24.2752 17.1682 26.4216C16.3629 25.6524 15.2916 25.2238 14.1779 25.2254C11.7856 25.2254 9.88574 27.16 9.88574 29.5175C9.88574 31.2764 10.9409 32.7539 12.419 33.4228C12.3482 33.8444 12.3135 34.2668 12.3135 34.7245C12.3135 41.3381 20.0183 46.7214 29.5173 46.7214C39.0164 46.7214 46.7212 41.3735 46.7212 34.7245C46.7212 34.3022 46.6858 33.8444 46.6156 33.4228C48.0931 32.7539 49.1483 31.241 49.1483 29.4821ZM19.6661 32.5427C19.6661 30.854 21.038 29.4821 22.7273 29.4821C24.416 29.4821 25.7879 30.854 25.7879 32.5427C25.7879 34.2313 24.416 35.6039 22.7273 35.6039C21.038 35.6387 19.6661 34.2313 19.6661 32.5427ZM36.7998 40.6698C34.6889 42.7808 30.6781 42.9218 29.5173 42.9218C28.3212 42.9218 24.3104 42.7454 22.2342 40.6698C21.9181 40.3531 21.9181 39.8606 22.2342 39.5439C22.5509 39.2278 23.0434 39.2278 23.3602 39.5439C24.6973 40.881 27.512 41.3381 29.5173 41.3381C31.5227 41.3381 34.3721 40.881 35.6739 39.5439C35.9906 39.2278 36.4831 39.2278 36.7998 39.5439C37.0812 39.8606 37.0812 40.3531 36.7998 40.6698ZM36.2365 35.6387C34.5479 35.6387 33.176 34.2668 33.176 32.5781C33.176 30.8895 34.5479 29.5175 36.2365 29.5175C37.9258 29.5175 39.2977 30.8895 39.2977 32.5781C39.2977 34.2313 37.9258 35.6387 36.2365 35.6387Z" fill="#E6E6E6"/>
</svg>
