<svg width="180" height="58" viewBox="0 0 180 58" fill="none" xmlns="http://www.w3.org/2000/svg">
<path d="M29.0749 0C13.0161 0 0 12.9826 0 29C0 45.0174 13.0161 58 29.0749 58C45.1337 58 58.1498 45.0174 58.1498 29C58.1498 12.9826 45.1337 0 29.0749 0ZM46.1166 32.8566C46.1455 33.2819 46.1455 33.7072 46.1166 34.1325C46.1166 40.6346 38.5281 45.9113 29.1689 45.9113C19.8097 45.9113 12.2212 40.6274 12.2212 34.1325C12.1922 33.7072 12.1922 33.2819 12.2212 32.8566C11.7947 32.6692 11.4117 32.4024 11.0793 32.0925C9.36642 30.4922 9.28692 27.8106 10.8914 26.1094C12.4958 24.4009 15.1843 24.3217 16.8899 25.9219C20.2433 23.6585 24.1821 22.4186 28.2293 22.3537L30.3758 12.2906C30.3758 12.2834 30.3758 12.2834 30.3758 12.2762C30.4842 11.786 30.9684 11.4832 31.4527 11.5913L38.5787 13.0114C39.034 12.2185 39.8579 11.6851 40.7757 11.5913C42.3729 11.4183 43.8039 12.5717 43.9774 14.1648C44.1508 15.7579 42.9945 17.1852 41.3973 17.3582C39.8 17.5312 38.3691 16.3778 38.1956 14.7847L31.973 13.48L30.0867 22.5267C34.0834 22.6132 37.9716 23.8459 41.2816 26.095C42.0332 25.3813 43.0234 24.956 44.0641 24.92C46.4129 24.8407 48.3787 26.6644 48.4654 29C48.4943 30.6291 47.5765 32.1285 46.1166 32.8566Z" fill="#121212"/>
<path d="M35.1457 38.8325C33.375 40.094 31.2358 40.5986 29.0676 40.5986C26.8994 40.5986 24.7674 40.0508 23.0185 38.7748C22.7221 38.537 22.3102 38.537 22.0211 38.7748C21.6887 39.0488 21.6381 39.5462 21.9127 39.8778C23.9797 41.4276 26.4947 42.1124 29.0965 42.1124C31.6766 42.1124 34.2133 41.4276 36.2803 39.8778C36.2803 39.8778 36.7718 39.3371 36.2948 38.8469C35.984 38.5298 35.4636 38.5225 35.1457 38.8325Z" fill="#121212"/>
<path d="M25.2157 31.905C25.2157 30.3047 23.9076 29 22.3032 29C20.6987 29 19.3906 30.3047 19.3906 31.905C19.3906 33.5053 20.6915 34.7957 22.3032 34.8101C23.9076 34.8101 25.2157 33.5053 25.2157 31.905Z" fill="#121212"/>
<path d="M38.6728 31.905C38.6728 30.3047 37.3646 29 35.7602 29C34.1558 29 32.8477 30.3047 32.8477 31.905C32.8477 33.5053 34.1485 34.7957 35.7602 34.8101C37.3646 34.8101 38.6728 33.5053 38.6728 31.905Z" fill="#121212"/>
<path d="M162.214 20.1551C164.401 20.1551 166.174 18.3865 166.174 16.2048C166.174 14.0231 164.401 12.2545 162.214 12.2545C160.027 12.2545 158.253 14.0231 158.253 16.2048C158.253 18.3865 160.027 20.1551 162.214 20.1551Z" fill="#121212"/>
<path d="M106.087 33.0152C107.62 33.1233 108.949 31.9699 109.065 30.4345C109.072 30.348 109.072 30.2471 109.072 30.1534C109.051 29.6199 108.985 29.0793 108.877 28.5531C107.938 23.5503 103.652 19.8668 98.5567 19.6649C92.7532 19.6649 87.9038 24.9848 87.9038 31.5158C87.9038 38.0467 92.6737 43.3738 98.5494 43.3738C101.664 43.4964 104.685 42.2421 106.781 39.9426C107.641 39.0055 107.569 37.5565 106.629 36.6987C106.557 36.6338 106.492 36.5762 106.42 36.5257C105.48 35.9418 104.259 36.0644 103.464 36.8285C102.156 38.126 100.4 38.8685 98.5494 38.9262C95.355 38.6739 92.7966 36.1797 92.4786 32.9863H106.001L106.087 33.0152ZM98.5278 24.127C101.339 24.3144 103.702 26.3184 104.331 29.0649H92.7388C93.3603 26.3112 95.7092 24.3072 98.5278 24.127Z" fill="#121212"/>
<path d="M88.1353 21.9644C88.1353 20.8543 87.3114 19.91 86.2056 19.773C83.2208 19.2756 80.1854 20.3785 78.2268 22.6853V22.3969C78.2268 21.1642 77.2295 20.1695 75.9936 20.1695C74.7578 20.1695 73.7604 21.1642 73.7604 22.3969V40.6345C73.7315 41.8312 74.6494 42.8476 75.8491 42.9485C77.0705 43.035 78.1401 42.1123 78.2196 40.894C78.2268 40.8075 78.2268 40.721 78.2196 40.6345V31.2778C78.0245 27.5438 80.8937 24.3648 84.6373 24.163C84.9698 24.1414 85.3095 24.1486 85.6419 24.1846H86.09C87.2463 24.0837 88.1353 23.125 88.1353 21.9644Z" fill="#121212"/>
<path d="M164.44 24.3577C164.44 23.125 163.442 22.1302 162.206 22.1302C160.97 22.1302 159.973 23.125 159.973 24.3577V40.6274C159.973 41.8601 160.97 42.8548 162.206 42.8548C163.442 42.8548 164.44 41.8601 164.44 40.6274V24.3577Z" fill="#121212"/>
<path d="M131.484 11.995C131.484 10.7696 130.486 9.77478 129.258 9.77478C128.029 9.77478 127.032 10.7696 127.032 11.995V21.9428C125.529 20.429 123.462 19.6072 121.33 19.6649C115.526 19.6649 110.677 24.9848 110.677 31.5158C110.677 38.0467 115.454 43.3738 121.33 43.3738C123.498 43.4387 125.594 42.6097 127.133 41.0743C127.48 42.2493 128.716 42.9197 129.894 42.5737C130.783 42.3142 131.419 41.5357 131.477 40.6058L131.484 11.995ZM121.315 38.9838C117.897 38.9838 115.114 35.6679 115.114 31.5662C115.114 27.4646 117.875 24.1486 121.315 24.1486C124.755 24.1486 127.516 27.4646 127.516 31.5662C127.516 35.6679 124.755 38.9478 121.33 38.9478L121.315 38.9838Z" fill="#121212"/>
<path d="M154.77 11.995C154.77 10.7696 153.773 9.77478 152.544 9.77478C151.315 9.77478 150.318 10.7696 150.318 11.995V21.9428C148.815 20.429 146.748 19.6072 144.616 19.6649C138.812 19.6649 133.963 24.9848 133.963 31.5158C133.963 38.0467 138.74 43.3738 144.616 43.3738C146.784 43.4387 148.88 42.6097 150.419 41.0743C150.766 42.2493 152.002 42.9197 153.18 42.5737C154.069 42.3142 154.705 41.5357 154.763 40.6058L154.77 11.995ZM144.609 38.9838C141.19 38.9838 138.408 35.6679 138.408 31.5662C138.408 27.4646 141.168 24.1486 144.609 24.1486C148.049 24.1486 150.809 27.4646 150.809 31.5662C150.809 35.6679 148.049 38.9478 144.623 38.9478L144.609 38.9838Z" fill="#121212"/>
<path d="M176.01 40.6202V24.127H177.94C179.01 24.1919 179.92 23.3773 179.985 22.3177C179.985 22.2816 179.993 22.2384 179.993 22.1951C180.086 21.1354 179.299 20.1983 178.244 20.1046C178.186 20.0974 178.121 20.0974 178.063 20.0974H176.018V17.0338C176.032 15.8444 175.121 14.8424 173.929 14.7343C172.708 14.6478 171.645 15.5704 171.558 16.7887C171.551 16.8392 171.551 16.8968 171.551 16.9473V20.1479H169.614C168.545 20.083 167.634 20.8976 167.569 21.9572C167.569 21.9933 167.562 22.0365 167.562 22.0798C167.468 23.1394 168.256 24.0765 169.311 24.1702C169.369 24.1775 169.434 24.1775 169.491 24.1775H171.421V40.6274C171.421 41.8528 172.418 42.8476 173.647 42.8476C174.876 42.9269 175.924 41.9898 176.003 40.7643C176.01 40.7211 176.01 40.6706 176.01 40.6202Z" fill="#121212"/>
</svg>
