<svg width="172" height="41" viewBox="0 0 172 41" fill="none" xmlns="http://www.w3.org/2000/svg">
<path d="M13.8801 15.8816V14.3102C13.3353 14.2238 12.7851 14.1764 12.2336 14.1685C6.89453 14.1572 2.16753 17.6218 0.56424 22.7215C-1.039 27.8212 0.853459 33.3725 5.2362 36.426C1.95319 32.9077 1.04157 27.7859 2.9086 23.3485C4.77564 18.911 9.07263 15.9866 13.8801 15.8816Z" fill="#121212"/>
<path d="M14.1759 33.6825C17.1611 33.6785 19.6149 31.3235 19.7456 28.3371V1.68736H24.6078C24.5085 1.13051 24.4612 0.565627 24.4663 0L17.8161 0V26.624C17.7055 29.6256 15.246 32.0032 12.2464 32.0081C11.3501 32.0005 10.4683 31.7797 9.67383 31.3641C10.1887 32.0784 10.8649 32.6608 11.6473 33.0637C12.4297 33.4666 13.2961 33.6786 14.1759 33.6825ZM33.6891 10.7295V9.2482C31.8997 9.24881 30.1499 8.72005 28.6596 7.72829C29.9661 9.24912 31.7316 10.3026 33.6891 10.7295Z" fill="#121212"/>
<path d="M28.6596 7.72828C27.1916 6.05424 26.3823 3.90232 26.3829 1.67444H24.6078C24.8371 2.90621 25.3146 4.07829 26.0112 5.11913C26.7079 6.15997 27.609 7.04774 28.6596 7.72828ZM12.2336 20.8278C9.67189 20.8409 7.44787 22.5983 6.83947 25.0902C6.23102 27.582 7.39434 30.1687 9.66101 31.364C8.43284 29.6661 8.25933 27.4219 9.21188 25.5549C10.1645 23.6878 12.0822 22.5136 14.1759 22.5151C14.7342 22.5221 15.2886 22.6089 15.8224 22.7728V15.9975C15.2773 15.9157 14.7271 15.8727 14.1759 15.8687H13.8801V21.0209C13.3435 20.8769 12.7889 20.8118 12.2336 20.8278Z" fill="#121212"/>
<path d="M33.6893 10.7295V15.8817C30.3767 15.8752 27.1501 14.8253 24.4665 12.8805V26.4179C24.4523 33.173 18.9797 38.6415 12.2338 38.6415C9.72856 38.646 7.28364 37.8719 5.23633 36.4261C8.65303 40.1058 13.9704 41.3171 18.6405 39.4795C23.3106 37.6419 26.382 33.1298 26.383 28.1053V14.6065C29.0756 16.5385 32.3062 17.5748 35.6187 17.569V10.9356C34.9702 10.9335 34.3237 10.8644 33.6893 10.7295Z" fill="#121212"/>
<path d="M24.4664 26.4179V12.8805C27.1581 14.8141 30.3892 15.8506 33.702 15.843V10.6908C31.7448 10.277 29.9751 9.2372 28.6597 7.72827C27.609 7.04774 26.7079 6.15997 26.0113 5.11913C25.3146 4.07829 24.8371 2.90621 24.6078 1.67444H19.7456V28.3371C19.6484 30.7158 18.0573 32.7719 15.7813 33.46C13.5052 34.1481 11.0437 33.3172 9.64816 31.3898C7.38154 30.1945 6.21822 27.6077 6.82662 25.1159C7.43507 22.6241 9.65904 20.8667 12.2208 20.8535C12.7792 20.8586 13.3339 20.9453 13.8673 21.1112V15.9589C9.03277 16.0409 4.7033 18.9755 2.83103 23.4395C0.958709 27.9035 1.89721 33.0536 5.22333 36.5677C7.29084 37.9659 9.7393 38.6902 12.2337 38.6415C18.9795 38.6415 24.4522 33.173 24.4664 26.4179Z" fill="#121212"/>
<path d="M56.7009 38.6575H49.6703V15.7736H42.6531L42.6396 9.50069H64.3095L62.32 15.7736H56.7009V38.6575ZM113.873 38.6575H106.856V15.7736H99.812L99.7986 9.50069H121.966L119.976 15.7736H113.873V38.6575ZM65.6269 18.7754H72.5768V38.6575H65.6807L65.6269 18.7754ZM84.3259 28.979L82.2691 30.9712V38.6575H75.3326V9.41992H82.2691V23.0022L89.1519 16.2716H97.4326L88.7351 24.7252L98.4812 38.6575H90.8322L84.3259 28.979ZM157.858 28.979L155.869 30.9712V38.6575H148.919L148.851 9.41992H155.869V23.0022L162.738 16.2716H171.019L162.321 24.7252L172 38.6575H164.351L157.858 28.979Z" fill="#121212"/>
<path d="M69.1084 16.5005C71.0387 16.5005 72.6036 14.9336 72.6036 13.0006C72.6036 11.0677 71.0387 9.50073 69.1084 9.50073C67.1781 9.50073 65.6133 11.0677 65.6133 13.0006C65.6133 14.9336 67.1781 16.5005 69.1084 16.5005Z" fill="#121212"/>
<path d="M121.079 26.7578C121.081 20.5476 125.852 15.3833 132.035 14.8986H131C124.716 15.2656 119.808 20.4752 119.808 26.778C119.808 33.0809 124.716 38.2905 131 38.6575H132.035C125.836 38.1716 121.06 32.9836 121.079 26.7578Z" fill="#121212"/>
<path d="M134.737 14.8582H133.688C139.851 15.368 144.593 20.5253 144.593 26.7175C144.593 32.9097 139.851 38.0671 133.688 38.5768H134.737C141.3 38.5768 146.62 33.2491 146.62 26.6771C146.62 20.1051 141.3 14.7775 134.737 14.7775V14.8582Z" fill="#121212"/>
<path d="M132.855 32.5462C129.662 32.5462 127.074 29.9547 127.074 26.7579C127.074 23.5612 129.662 20.9696 132.855 20.9696C136.047 20.9696 138.635 23.5612 138.635 26.7579C138.628 29.9516 136.044 32.5388 132.855 32.5462ZM132.855 14.8583C126.292 14.8583 120.971 20.1859 120.971 26.7579C120.971 33.3299 126.292 38.6576 132.855 38.6576C139.418 38.6576 144.738 33.3299 144.738 26.7579C144.738 23.602 143.486 20.5752 141.258 18.3436C139.029 16.112 136.006 14.8583 132.855 14.8583Z" fill="#121212"/>
</svg>
