<svg width="150" height="50" viewBox="0 0 150 50" fill="none" xmlns="http://www.w3.org/2000/svg">
<path d="M146.932 35.3495H136.432V22.2569H133.806V35.3495H123.306V2.62507H133.806V11.784H141.682L146.932 17.0211V35.3495ZM120.694 22.2569H110.194V24.882H120.694V35.3561H104.951L99.7011 30.119V17.0211L104.951 11.784H120.694L120.694 22.2569ZM97.0799 22.2569H87.8921V24.882H97.0799V35.3562H82.6498L77.3996 30.1191V2.62507H87.9V11.784H97.0878L97.0799 22.2569ZM74.7785 9.16552H64.2781V2.62507H74.7785V9.16552ZM74.7785 35.3495H64.2781V11.7841H74.7785V35.3495ZM61.653 35.3496H30.1742L24.924 30.1125V11.784H35.4243V24.8755H38.0495V11.784H48.5499V24.8755H51.1749V11.784H61.6753L61.653 35.3496ZM22.3027 22.2569H13.1255V24.882H22.3133V35.3561H7.87526L2.62507 30.119V2.62507H13.1255V11.784H22.3133L22.3027 22.2569ZM142.997 9.16552H136.434V0H122.034L115.41 9.16552H103.64L99.7024 13.0927V9.16552H90.5147V0H61.6595V9.16552H21.0559L14.438 0H0V31.4224L18.3665 49.7455H36.733V44.5085L41.9832 49.7455H77.4023V44.5085L82.6525 49.7455H99.7038V44.5085L104.954 49.7455H137.752L149.565 37.9615V15.7112L142.997 9.16552Z" fill="#121212"/>
</svg>
