<svg width="20" height="14" viewBox="0 0 20 14" fill="none" xmlns="http://www.w3.org/2000/svg">
<g clip-path="url(#clip0_1012_109)">
<path d="M17.284 13.8417C17.284 13.8417 11.8228 13.9942 10 13.9942C8.1772 13.9942 2.71605 13.8417 2.71605 13.8417C1.30719 13.8417 0.152505 12.687 0.152505 11.2781C0.152505 11.2781 0 8.06827 0 7.00073C0 5.92593 0.152505 2.72331 0.152505 2.72331C0.152505 1.30719 1.30719 0.152505 2.71605 0.152505C2.71605 0.152505 8.1772 0 10 0C11.8228 0 17.284 0.152505 17.284 0.152505C18.6928 0.152505 19.8475 1.30719 19.8475 2.71605C19.8475 2.71605 20 5.92593 20 6.99347C20 8.06827 19.8475 11.2709 19.8475 11.2709C19.8475 12.687 18.6928 13.8417 17.284 13.8417Z" fill="#FF0000"/>
<path fill-rule="evenodd" clip-rule="evenodd" d="M8.08301 10.1236V3.87085L13.1375 7.00084L8.08301 10.1236Z" fill="white"/>
</g>
<defs>
<clipPath id="clip0_1012_109">
<rect width="20" height="13.9942" fill="white"/>
</clipPath>
</defs>
</svg>
